<svg width="32" height="32" viewBox="0 0 32 32" fill="none" xmlns="http://www.w3.org/2000/svg">
<path d="M31.5729 14.1617C31.5303 14.1117 31.5197 14.0217 31.5303 13.9533C31.658 13.0279 31.117 12.5893 30.4075 12.3992C30.1219 12.3292 29.9516 12.2592 29.8363 12.0007C29.6554 11.6122 29.2652 11.4338 28.8412 11.2737C29.0009 11.0953 29.1375 10.9352 29.2652 10.7652C29.9641 9.86809 30.0173 8.71422 29.329 7.82714C28.8519 7.20018 28.1743 6.86169 27.4115 6.65159C27.2324 6.59156 27.1473 6.52152 27.1366 6.35311C27.094 5.88456 26.8085 5.56609 26.3845 5.36767C26.2036 5.28763 26.067 5.2176 26.0989 4.98916C26.1096 4.89911 26.0564 4.79072 26.0244 4.69068C25.7176 3.81361 25.0187 3.31672 24.1176 3.05827C23.6405 2.92821 23.1331 2.89819 22.6241 2.81982C22.5602 2.71977 22.4751 2.56137 22.3704 2.43131C21.9678 1.95276 21.4267 1.74432 20.7811 1.75432C20.6959 1.76433 20.5594 1.73431 20.5062 1.67429C20.1035 1.19573 19.5838 0.977297 18.9487 1.00731C18.727 1.02732 18.4929 1.08734 18.2712 1.12736C17.2973 -0.0982056 15.5058 -0.35665 14.0655 0.510418C13.4092 0.0918906 12.7511 0.131897 12.1054 0.560429C12.0309 0.610452 11.9245 0.630469 11.8305 0.630469C11.1848 0.640473 10.6758 0.908927 10.3157 1.39749C10.0939 1.69596 9.95558 2.06448 9.77465 2.41297C9.08642 2.33293 8.55606 2.38294 8.03811 2.99989C7.94232 3.11995 7.85718 3.15998 7.69931 3.13997C7.56096 3.12997 7.41373 3.13997 7.28602 3.15998C6.78758 3.26003 6.4275 3.53849 6.13127 3.90699C5.52818 3.84696 4.57388 4.23548 4.18187 4.99249C3.98143 5.361 3.92821 5.73951 3.98143 6.13802C4.03464 6.50653 4.17122 6.835 4.44794 7.06344C4.27765 7.3419 4.10914 7.62038 3.92821 7.93052C3.90693 7.94053 3.82179 7.95053 3.73842 7.97054C3.25062 8.07058 2.79476 8.24899 2.4666 8.6275C2.31761 8.78757 2.1491 8.89597 1.95753 8.99602C1.45909 9.24447 1.10965 9.61296 1.01386 10.1515C0.950006 10.52 1.0245 10.8685 1.18414 11.197C0.559763 11.6356 0.591696 12.2425 0.845349 12.7711C1.12029 13.358 1.6613 13.6965 2.28567 13.9566C2.2431 13.9867 2.21118 14.0167 2.17925 14.0367C1.78724 14.2651 1.50165 14.5653 1.41651 15.0121C1.41651 15.0622 1.33137 15.1022 1.27816 15.1322C1.10787 15.2122 0.918077 15.2722 0.758435 15.3606C0.291925 15.6391 -0.110726 16.1777 0.0276302 16.9047C0.0808442 17.2432 0.291925 17.4816 0.557995 17.7017C0.251127 18.5388 0.717638 19.6043 2.44354 19.8127C2.2839 21.3167 3.39784 21.8236 4.5313 21.4851C4.63773 21.6052 4.73175 21.7436 4.85946 21.8436C5.46255 22.3322 6.37428 22.3122 7.10509 21.8236C7.1583 21.7836 7.26473 21.7636 7.32681 21.7836C8.02569 21.9037 8.67135 21.8236 9.27621 21.4651C9.82787 21.1266 9.90414 20.2696 9.66823 19.851C10.2713 19.9661 13.3755 20.7081 13.8739 24.3615C14.3546 27.8847 12.7334 30.6494 11.8287 32H18.9789C18.8831 31.8899 18.7873 31.7816 18.7146 31.6515C17.7816 30.2375 17.2956 28.6835 17.1572 27.041C17.0721 26.0456 17.0827 25.0501 17.3381 24.073C17.6556 22.8774 18.312 21.882 19.3833 21.135C19.9545 20.7364 20.6339 20.558 21.3114 20.3479C21.3327 20.428 21.354 20.498 21.3753 20.5664C21.4924 20.9049 21.6502 21.2033 21.9571 21.4234C22.4343 21.7619 22.9629 21.8219 23.5252 21.7219C23.7362 21.6819 23.9065 21.6419 24.0662 21.832C24.1513 21.932 24.2985 21.992 24.4262 22.0304C25.4018 22.3789 26.2905 22.1905 27.0213 21.5418C27.2963 21.3034 27.5198 21.2333 27.8692 21.2433C28.5787 21.2634 29.2137 20.8348 29.4691 20.2079C29.5011 20.1478 29.5649 20.0778 29.6394 20.0478C30.0421 19.8677 30.349 19.6093 30.5299 19.2308C30.8261 18.6038 30.7835 18.0052 30.4022 17.4683C30.7197 17.2498 31.0585 17.0598 31.3246 16.8113C32.0713 16.1227 32.2629 14.9988 31.5729 14.1617ZM10.4718 17.9451C11.309 17.3382 11.3941 16.7896 10.7999 15.7341C11.5307 15.8742 11.944 16.3911 12.3041 16.9297C12.8557 17.7267 12.9693 18.387 13.1431 19.2241C12.5595 19.2141 11.1919 18.5738 10.4718 17.9451ZM14.6491 17.8985C14.5178 17.6984 13.6486 16.1827 13.395 15.7842C13.3205 15.6741 13.3329 15.5807 13.4588 15.5357C13.716 15.4423 14.1684 15.0605 14.2056 14.2451C14.4876 14.9721 14.8389 15.6891 14.7679 16.6929C14.7448 17.0064 14.6491 17.8985 14.6491 17.8985ZM16.1887 21.5001C16.1603 19.9361 16.1834 17.0047 16.6765 15.1589C16.8432 15.5824 17.2246 15.8942 17.7071 16.0193C17.182 17.1798 17.3577 17.9335 18.3545 18.4437C18.0352 18.9423 16.5914 21.3401 16.1887 21.5001ZM20.7314 19.4709C20.0006 19.7293 18.798 20.2662 18.7128 20.2462C18.782 20.0395 18.821 19.8527 19.0729 19.6093C19.362 19.3291 20.1798 18.5188 20.1798 18.5188C20.6055 18.8606 21.1926 18.8756 21.542 18.7222C21.425 19.0207 20.9851 19.3808 20.7314 19.4709Z" fill="#262D26"/>
</svg>
