<svg width="201" height="201" viewBox="0 0 201 201" fill="none" xmlns="http://www.w3.org/2000/svg">
<path d="M100.116 170.431C61.344 170.431 29.8009 138.888 29.8009 100.116C29.8009 61.344 61.344 29.7988 100.116 29.7988C138.888 29.7988 170.431 61.342 170.431 100.114C170.431 138.886 138.888 170.431 100.116 170.431ZM100.116 31.1045C62.0627 31.1045 31.1046 62.0626 31.1046 100.116C31.1046 138.169 62.0627 169.126 100.116 169.126C138.169 169.126 169.128 138.167 169.128 100.114C169.128 62.0606 138.169 31.1045 100.116 31.1045Z" fill="#F2ECE3"/>
<path d="M37.1411 61.7894C37.4772 61.2732 37.6108 60.8481 37.542 60.5181C37.4731 60.1861 37.2646 59.8805 36.9185 59.5971C36.5723 59.3157 36.1695 59.008 35.712 58.674L27.2199 52.4896C26.9567 52.2993 26.7098 52.109 26.477 51.9188C26.2442 51.7305 26.0336 51.5564 25.8474 51.4005C25.6895 51.6455 25.5296 51.8904 25.3717 52.1354C25.2138 52.3823 25.0559 52.6253 24.8959 52.8722L24.0295 52.2427C24.5235 51.5402 25.0316 50.8175 25.5599 50.0786C26.0883 49.3398 26.6288 48.5908 27.1814 47.8296C28.1065 46.5583 29.0296 45.5968 29.9467 44.9409C30.8657 44.285 31.7726 43.9328 32.6694 43.8862C33.5662 43.8376 34.4488 44.0988 35.3172 44.6716C35.8476 45.0178 36.3274 45.4814 36.7545 46.0644C37.1816 46.6474 37.4671 47.3559 37.6108 48.192C37.7525 49.028 37.6614 49.9875 37.3334 51.0726C37.0055 52.1556 36.3496 53.3743 35.3658 54.7245C35.3273 54.7771 35.2565 54.8763 35.1512 55.018C35.046 55.1617 34.9387 55.2974 34.8293 55.4168L37.6796 57.4918C38.0339 57.7509 38.3355 57.9735 38.5865 58.1679C38.8375 58.3602 39.0379 58.5323 39.1898 58.68C39.3294 58.4634 39.4651 58.2488 39.5946 58.0424C39.7262 57.8359 39.8598 57.6294 40.0015 57.4209C40.1432 57.2144 40.2789 57.0059 40.4084 56.8015L41.293 57.4452L37.7909 62.2611L37.1411 61.7894ZM34.0277 54.8277C34.2362 54.599 34.4083 54.3986 34.5419 54.2245C34.6775 54.0524 34.8354 53.8419 35.0176 53.5929C35.5622 52.8479 35.9104 52.0564 36.0642 51.2264C36.218 50.3965 36.1533 49.5969 35.8699 48.8276C35.5865 48.0624 35.0642 47.3984 34.3051 46.8478C33.6897 46.3984 33.0905 46.113 32.5074 45.9895C31.9244 45.866 31.3677 45.8883 30.8374 46.0522C30.307 46.2162 29.7969 46.5016 29.311 46.9106C28.8232 47.3175 28.3616 47.8235 27.9223 48.4248C27.5883 48.8843 27.4547 49.273 27.5235 49.5928C27.5903 49.9126 27.7928 50.2102 28.1248 50.4815C28.4588 50.7548 28.8596 51.0625 29.3333 51.4046L34.0277 54.8277Z" fill="#F2ECE3"/>
<path d="M53.6982 44.7222C52.52 45.7142 51.3418 46.366 50.1637 46.6798C48.9855 46.9935 47.8539 47.0401 46.7689 46.8194C45.6838 46.6008 44.6777 46.1919 43.7506 45.5947C42.8234 44.9975 42.0218 44.2951 41.3437 43.4894C40.6857 42.708 40.1513 41.8072 39.7384 40.789C39.3254 39.7707 39.1068 38.6978 39.0825 37.5743C39.0582 36.4508 39.2809 35.3415 39.7485 34.2483C40.2161 33.1552 40.9955 32.1511 42.0866 31.2321C43.2283 30.2705 44.3862 29.645 45.5624 29.3555C46.7385 29.0661 47.8802 29.0316 48.9875 29.2543C50.0948 29.475 51.1171 29.8717 52.0524 30.4406C52.9876 31.0114 53.7832 31.6855 54.4411 32.4669C55.0889 33.2362 55.6172 34.1289 56.0322 35.1492C56.4452 36.1694 56.6658 37.2444 56.6962 38.3739C56.7266 39.5035 56.51 40.6128 56.0484 41.6999C55.5848 42.7829 54.8014 43.7931 53.6982 44.7222ZM53.0929 43.9267C53.8621 43.2789 54.3945 42.5522 54.6881 41.7424C54.9816 40.9347 55.0848 40.0946 54.9998 39.2242C54.9148 38.3537 54.682 37.4994 54.3055 36.6634C53.9289 35.8253 53.4532 35.0642 52.8803 34.382C52.2325 33.6147 51.4856 32.9406 50.6374 32.3617C49.7892 31.7827 48.9005 31.3535 47.9693 31.0782C47.0381 30.8029 46.111 30.73 45.1919 30.8576C44.2729 30.9851 43.4267 31.3718 42.6595 32.0195C41.8902 32.6694 41.3578 33.4022 41.0643 34.222C40.7687 35.0419 40.6655 35.886 40.7526 36.7585C40.8376 37.629 41.0704 38.4832 41.4469 39.3193C41.8234 40.1594 42.3052 40.9246 42.8902 41.6169C43.4652 42.2991 44.1615 42.9307 44.9794 43.5137C45.7972 44.0967 46.6778 44.5421 47.6171 44.8538C48.5564 45.1656 49.4977 45.2627 50.439 45.1474C51.3742 45.034 52.2609 44.6271 53.0929 43.9267Z" fill="#F2ECE3"/>
<path d="M70.8179 33.8678C69.5203 32.6633 68.2167 31.4649 66.9069 30.2746C65.5972 29.0823 64.2955 27.8656 62.9979 26.6247C62.585 26.2401 62.172 25.8474 61.7631 25.4486C61.3522 25.0518 60.9493 24.649 60.5505 24.238C60.1517 23.8271 59.7489 23.4202 59.344 23.0113C59.4149 23.1753 59.4817 23.3392 59.5444 23.5073C59.6072 23.6733 59.674 23.8393 59.7448 24.0032C59.9614 24.5457 60.2206 25.1976 60.5242 25.9587C60.8279 26.7199 61.1477 27.5357 61.4878 28.4021C61.8279 29.2726 62.1761 30.1369 62.5303 30.9973C62.8846 31.8597 63.2186 32.6734 63.5324 33.4407C63.6599 33.7726 63.7895 34.1067 63.9231 34.4387C64.0567 34.7686 64.17 35.0824 64.2611 35.3779C64.5385 35.2403 64.8097 35.1047 65.079 34.9711C65.3482 34.8395 65.6195 34.7018 65.8968 34.5642L66.3199 35.548L62.0566 37.3901L61.7388 36.6533C62.1923 36.4407 62.4878 36.1937 62.6255 35.9144C62.7611 35.635 62.7894 35.3253 62.7145 34.9873C62.6396 34.6492 62.5324 34.299 62.3927 33.9346L58.4189 23.572C58.3055 23.2684 58.1881 22.9647 58.0667 22.6651C57.9452 22.3635 57.8319 22.068 57.7246 21.7805C57.4634 21.9121 57.2003 22.0396 56.9351 22.1611C56.6699 22.2846 56.4067 22.4101 56.1456 22.5416L55.7306 21.5821L59.1456 20.1064L66.8138 27.311C67.2005 27.6754 67.5831 28.0397 67.9616 28.4041C68.3402 28.7705 68.7268 29.1329 69.1195 29.4932C69.5143 29.8535 69.907 30.222 70.2997 30.5985L70.3442 30.5803C70.3341 30.1086 70.32 29.5438 70.3017 28.89C70.2835 28.2341 70.2633 27.6733 70.239 27.2077C70.1863 25.2887 70.158 23.3514 70.154 21.4019C70.1499 19.4525 70.1114 17.4505 70.0386 15.3998L73.3423 13.9727L73.6601 14.7075C73.2816 14.8553 73.0062 15.0577 72.8362 15.3148C72.6662 15.5739 72.6054 15.9039 72.656 16.3067C72.7066 16.7095 72.8767 17.2096 73.1722 17.8067L78.142 27.7118C78.2817 27.9527 78.4011 28.1916 78.5064 28.4304C78.6076 28.6673 78.7007 28.8839 78.7857 29.0782C79.0469 28.9466 79.3141 28.8191 79.5853 28.6936C79.8586 28.5681 80.1258 28.4385 80.387 28.309L80.81 29.2908L75.8099 31.4507L75.4921 30.7139C75.9476 30.5013 76.2411 30.2422 76.3747 29.9365C76.5083 29.6329 76.5164 29.2766 76.401 28.8657C76.2857 28.4568 76.0913 27.975 75.816 27.4243L72.1864 20.2501C72.069 20.0193 71.9496 19.7865 71.8321 19.5558C71.7147 19.325 71.5953 19.0922 71.4779 18.8614C71.3605 18.6286 71.241 18.3978 71.1236 18.165C71.1236 18.2885 71.1236 18.4221 71.1236 18.5618C71.1236 18.7035 71.1297 18.8513 71.1439 19.0051L71.4839 33.5864L70.8179 33.8678Z" fill="#F2ECE3"/>
<path d="M82.1603 29.2645L82.0489 28.4689C82.5287 28.4001 82.8809 28.2199 83.1016 27.9264C83.3202 27.6349 83.4842 27.2503 83.5894 26.7766C83.6947 26.3049 83.8162 25.7543 83.9579 25.1288L87.0065 10.918L87.5834 10.835L94.8933 23.7765C95.0674 24.0964 95.2759 24.5093 95.5107 25.0174C95.7476 25.5235 95.8751 25.9628 95.8954 26.3373C96.1646 26.2826 96.4379 26.228 96.7071 26.1733C96.9763 26.1187 97.2496 26.062 97.5189 26.0093L97.6687 27.0701L92.1544 27.8495L92.043 27.0559C92.6503 26.9527 93.0309 26.7604 93.1888 26.4749C93.3467 26.1915 93.3751 25.8778 93.2779 25.5296C93.1787 25.1834 93.0532 24.8717 92.9014 24.6004L91.7374 22.4546L85.4964 23.485L85.0186 26.1814C84.9599 26.5822 84.9032 26.9021 84.8465 27.1389C84.7899 27.3758 84.7251 27.6389 84.6522 27.9264C84.9721 27.8657 85.2858 27.8049 85.5976 27.7442C85.9093 27.6835 86.215 27.6227 86.5186 27.564L86.6684 28.6248L82.1603 29.2645ZM85.7089 22.4L91.2698 21.6145L88.9114 17.2582C88.6624 16.7865 88.4134 16.3168 88.1584 15.8533C87.9053 15.3897 87.6543 14.9221 87.4073 14.4484L87.3608 14.4545C87.2616 14.9261 87.1624 15.3998 87.0571 15.8735C86.9539 16.3472 86.8446 16.829 86.7353 17.3189L85.7089 22.4Z" fill="#F2ECE3"/>
<path d="M99.3833 27.0114L99.4642 26.2139C100.082 26.2422 100.515 26.145 100.766 25.9163C101.015 25.6896 101.177 25.3555 101.246 24.9142C101.314 24.4729 101.377 23.9689 101.434 23.4061L102.487 12.9524C102.521 12.6306 102.559 12.3209 102.606 12.0233C102.653 11.7257 102.695 11.4585 102.738 11.2156C102.446 11.2034 102.153 11.1893 101.861 11.1771C101.57 11.165 101.276 11.1508 100.985 11.1387L101.092 10.0739L106.535 10.6224L106.456 11.42C105.859 11.3775 105.428 11.4727 105.169 11.7075C104.91 11.9423 104.744 12.2743 104.677 12.7075C104.61 13.1407 104.545 13.6488 104.489 14.2278L104.082 18.2441L112.744 19.1165L113.256 14.0355C113.288 13.7136 113.327 13.4019 113.373 13.1063C113.42 12.8087 113.463 12.5415 113.505 12.2986C113.214 12.2864 112.92 12.2723 112.628 12.2601C112.337 12.248 112.043 12.2338 111.752 12.2217L111.859 11.1569L117.305 11.7055L117.224 12.5031C116.627 12.4585 116.195 12.5537 115.936 12.7885C115.677 13.0253 115.513 13.3573 115.444 13.7905C115.375 14.2237 115.313 14.7298 115.256 15.3108L114.22 25.5944C114.175 26.0317 114.133 26.4041 114.094 26.7179C114.054 27.0317 114.007 27.2928 113.954 27.4993C114.244 27.5115 114.537 27.5256 114.829 27.5378C115.12 27.5519 115.414 27.5641 115.705 27.5762L115.598 28.641L110.155 28.0924L110.234 27.2949C110.851 27.3232 111.284 27.226 111.535 26.9973C111.786 26.7705 111.946 26.4365 112.015 25.9952C112.084 25.5539 112.147 25.0499 112.203 24.4871L112.649 20.0822L103.976 19.3068L103.454 24.5094C103.41 24.9446 103.367 25.3191 103.329 25.6329C103.288 25.9466 103.242 26.2078 103.187 26.4143C103.478 26.4284 103.772 26.4406 104.064 26.4527C104.355 26.4669 104.649 26.479 104.94 26.4912L104.833 27.556L99.3833 27.0114Z" fill="#F2ECE3"/>
<path d="M126.526 32.8233C125.09 32.2625 123.955 31.5419 123.117 30.6552C122.276 29.7706 121.695 28.7989 121.37 27.7402C121.044 26.6814 120.92 25.6025 121.003 24.5033C121.084 23.404 121.317 22.3635 121.702 21.3817C122.074 20.4303 122.608 19.5295 123.305 18.6793C124.003 17.829 124.841 17.1246 125.815 16.5659C126.789 16.0071 127.87 15.6731 129.054 15.5598C130.238 15.4484 131.493 15.6509 132.823 16.1711C134.212 16.7136 135.315 17.4323 136.133 18.325C136.951 19.2177 137.528 20.2056 137.862 21.2866C138.196 22.3676 138.338 23.4526 138.285 24.5458C138.232 25.6389 138.02 26.6612 137.647 27.6126C137.283 28.5499 136.75 29.4426 136.052 30.2929C135.354 31.1431 134.516 31.8496 133.538 32.4184C132.56 32.9832 131.483 33.3253 130.305 33.4387C129.127 33.5541 127.87 33.3476 126.526 32.8233ZM126.932 31.9123C127.868 32.2767 128.762 32.3961 129.613 32.2666C130.463 32.137 131.25 31.8273 131.973 31.3354C132.696 30.8435 133.335 30.2321 133.892 29.4993C134.447 28.7685 134.888 27.9871 135.212 27.1572C135.576 26.2219 135.811 25.2421 135.914 24.2199C136.018 23.1996 135.967 22.2117 135.765 21.2623C135.56 20.3129 135.182 19.4647 134.629 18.7177C134.076 17.9707 133.333 17.4141 132.396 17.0477C131.461 16.6833 130.562 16.5679 129.7 16.6995C128.839 16.8331 128.046 17.1468 127.321 17.6367C126.598 18.1286 125.959 18.74 125.404 19.4728C124.849 20.2056 124.406 20.9931 124.076 21.8392C123.752 22.6692 123.53 23.5842 123.408 24.5802C123.289 25.5782 123.317 26.564 123.493 27.5377C123.669 28.5135 124.034 29.3859 124.586 30.1572C125.139 30.9325 125.92 31.5176 126.932 31.9123Z" fill="#F2ECE3"/>
<path d="M137.105 37.2525L137.57 36.5986C138.082 36.9428 138.506 37.0703 138.846 36.9853C139.188 36.8983 139.499 36.6736 139.789 36.3112C140.076 35.9488 140.394 35.5237 140.742 35.0338L146.662 26.7118C146.915 26.3555 147.139 26.0519 147.336 25.8049C147.532 25.5559 147.698 25.3515 147.834 25.1875C147.587 25.0316 147.34 24.8757 147.091 24.7199C146.844 24.564 146.597 24.4081 146.35 24.2502L146.969 23.3798C147.704 23.8818 148.441 24.3919 149.18 24.9061C149.917 25.4203 150.684 25.9608 151.475 26.5256C153.01 27.6147 154.014 28.7382 154.496 29.8961C154.976 31.052 154.785 32.2119 153.921 33.3678C153.619 33.7909 153.198 34.1269 152.652 34.3759C152.107 34.6249 151.477 34.7403 150.767 34.7201C150.054 34.7019 149.287 34.4994 148.467 34.1128L148.439 34.1533C149.892 35.1857 150.753 36.3011 151.018 37.4934C151.283 38.6878 151.054 39.793 150.332 40.8113C149.757 41.617 149.06 42.1656 148.237 42.453C147.413 42.7425 146.542 42.7951 145.621 42.6069C144.698 42.4206 143.789 42.0057 142.892 41.366L137.105 37.2525ZM140.702 38.6169C140.904 38.7809 141.151 38.9712 141.445 39.1898C141.736 39.4084 142.012 39.6088 142.269 39.791C142.528 39.9752 142.696 40.0947 142.775 40.1514C143.793 40.874 144.795 41.206 145.785 41.1433C146.773 41.0805 147.621 40.5542 148.326 39.5643C148.898 38.7566 149.186 38.0177 149.188 37.3416C149.192 36.6675 149 36.0541 148.617 35.5015C148.232 34.9508 147.737 34.4589 147.129 34.0278C146.732 33.7464 146.37 33.4933 146.042 33.2686C145.712 33.046 145.382 32.8334 145.044 32.635L141.86 37.1149C141.607 37.4711 141.386 37.7748 141.2 38.0197C141.016 38.2647 140.85 38.4651 140.702 38.6169ZM145.595 31.8617L147.068 32.8496C147.832 33.3719 148.536 33.6391 149.184 33.6532C149.832 33.6654 150.411 33.5156 150.921 33.2039C151.433 32.8921 151.854 32.4852 152.19 31.9852C152.684 31.2625 152.907 30.6066 152.86 30.0155C152.814 29.4264 152.611 28.9042 152.257 28.4527C151.903 28.0013 151.506 27.6207 151.069 27.309C150.631 26.9993 150.267 26.8292 149.971 26.7968C149.674 26.7644 149.396 26.8657 149.131 27.0964C148.868 27.3252 148.562 27.6855 148.214 28.1754L145.595 31.8617Z" fill="#F2ECE3"/>
<path d="M149.959 46.3863L150.577 45.8742C150.973 46.3236 151.34 46.5584 151.678 46.5726C152.016 46.5867 152.368 46.4633 152.731 46.2041C153.095 45.945 153.502 45.6292 153.951 45.2567L162.038 38.5501C162.287 38.3437 162.532 38.1513 162.773 37.9732C163.014 37.793 163.235 37.6331 163.433 37.4914C163.235 37.2748 163.036 37.0623 162.836 36.8477C162.638 36.6331 162.439 36.4205 162.239 36.206L163.063 35.5217L166.555 39.7344L165.937 40.2465C165.543 39.7951 165.17 39.5623 164.82 39.5461C164.47 39.5299 164.119 39.6534 163.767 39.9125C163.415 40.1736 163.014 40.4894 162.565 40.8619L160 42.9895L161.314 44.4612C162.136 45.4005 162.737 46.2709 163.115 47.0726C163.496 47.8722 163.682 48.6131 163.678 49.2933C163.672 49.9714 163.514 50.5929 163.2 51.1557C162.889 51.7204 162.457 52.2286 161.909 52.684C161.036 53.4067 160.148 53.8298 159.243 53.9452C158.34 54.0626 157.48 53.933 156.662 53.5585C155.844 53.182 155.119 52.6132 154.49 51.8541L149.959 46.3863ZM153.083 48.6293C153.237 48.8398 153.425 49.0888 153.652 49.3742C153.878 49.6617 154.091 49.9249 154.293 50.1698C154.496 50.4127 154.627 50.5706 154.69 50.6475C155.146 51.1961 155.672 51.603 156.269 51.8662C156.866 52.1294 157.51 52.1962 158.202 52.0626C158.893 51.931 159.607 51.5605 160.344 50.9492C161.142 50.2892 161.638 49.6293 161.832 48.9734C162.026 48.3175 162.026 47.69 161.836 47.0908C161.644 46.4916 161.346 45.947 160.943 45.4592C160.634 45.0847 160.348 44.7466 160.089 44.447C159.83 44.1454 159.563 43.8579 159.289 43.5786C158.079 44.5827 157.097 45.3964 156.34 46.022C155.585 46.6495 154.996 47.1313 154.573 47.4714C154.148 47.8135 153.828 48.0685 153.611 48.2366C153.392 48.4086 153.216 48.5382 153.083 48.6293ZM158.712 56.9452L159.33 56.4331C159.747 56.8865 160.127 57.1214 160.463 57.1355C160.802 57.1517 161.152 57.0242 161.51 56.759C161.868 56.4938 162.265 56.18 162.702 55.8157L170.792 49.1111C171.041 48.9046 171.284 48.7062 171.52 48.522C171.757 48.3378 171.978 48.1799 172.186 48.0503C171.988 47.8357 171.79 47.6232 171.589 47.4066C171.391 47.192 171.192 46.9795 170.992 46.7649L171.816 46.0827L175.308 50.2953L174.69 50.8075C174.296 50.356 173.923 50.1232 173.573 50.1071C173.223 50.0909 172.873 50.2143 172.52 50.4755C172.166 50.7346 171.765 51.0504 171.318 51.4249L163.362 58.0202C163.024 58.2995 162.729 58.5344 162.476 58.7226C162.223 58.9129 162.004 59.0627 161.82 59.172C162.018 59.3886 162.221 59.6032 162.425 59.8239C162.63 60.0445 162.832 60.2611 163.03 60.4757L162.206 61.1579L158.712 56.9452Z" fill="#F2ECE3"/>
<path d="M26.4688 152.34L27.0964 151.803C27.5336 152.263 27.9243 152.498 28.2725 152.506C28.6207 152.516 28.977 152.382 29.3414 152.103C29.7057 151.824 30.1086 151.496 30.5519 151.115L38.7565 144.101C39.0096 143.884 39.2586 143.682 39.5035 143.494C39.7485 143.305 39.9711 143.137 40.1715 142.987C39.9651 142.771 39.7566 142.552 39.5481 142.336C39.3416 142.119 39.1331 141.902 38.9246 141.686L39.7606 140.971L50.3317 153.336L49.7041 153.87C49.2912 153.413 48.9045 153.178 48.5442 153.168C48.1859 153.158 47.8255 153.289 47.4672 153.563C47.1089 153.836 46.702 154.168 46.2466 154.559L38.1756 161.459C37.8334 161.751 37.5379 162 37.2848 162.204C37.0318 162.409 36.8132 162.569 36.6269 162.684C36.8354 162.901 37.0419 163.117 37.2504 163.334C37.4569 163.551 37.6654 163.769 37.8739 163.984L37.0379 164.698L33.3678 160.407L33.9953 159.872C34.4326 160.332 34.8273 160.569 35.1795 160.585C35.5338 160.601 35.8921 160.47 36.2565 160.188C36.6209 159.909 37.0237 159.581 37.467 159.202L47.0563 151L42.5967 145.939C42.2586 145.57 41.9449 145.35 41.6554 145.279C41.3659 145.21 41.0825 145.243 40.8052 145.38C40.5278 145.52 40.2323 145.712 39.9185 145.959L31.2584 153.364C30.9163 153.656 30.6187 153.907 30.3657 154.109C30.1126 154.316 29.894 154.473 29.7078 154.589C29.9143 154.805 30.1228 155.024 30.3313 155.239C30.5378 155.455 30.7463 155.674 30.9548 155.891L30.1187 156.603L26.4688 152.34Z" fill="#F2ECE3"/>
<path d="M42.8234 168.618C43.3558 168.962 43.7911 169.099 44.1312 169.026C44.4712 168.956 44.787 168.741 45.0765 168.385C45.366 168.03 45.6818 167.615 46.0239 167.144L52.3641 158.409C52.5585 158.14 52.7548 157.887 52.9492 157.646C53.1435 157.407 53.3216 157.188 53.4816 156.996C53.2285 156.834 52.9755 156.672 52.7245 156.508C52.4714 156.344 52.2184 156.184 51.9674 156.02L52.6131 155.129C53.3358 155.633 54.0787 156.158 54.8399 156.698C55.599 157.241 56.3703 157.793 57.1517 158.36C58.4594 159.31 59.4493 160.255 60.1254 161.198C60.7995 162.14 61.1619 163.071 61.2125 163.994C61.2631 164.917 60.9959 165.824 60.4108 166.715C60.0566 167.259 59.5809 167.755 58.9817 168.194C58.3845 168.636 57.6557 168.929 56.7974 169.079C55.9371 169.227 54.9512 169.134 53.8358 168.798C52.7204 168.464 51.4694 167.79 50.0807 166.781C50.028 166.743 49.9268 166.67 49.777 166.563C49.6292 166.454 49.4916 166.346 49.3681 166.233L47.2405 169.166C46.9753 169.53 46.7446 169.84 46.5482 170.099C46.3498 170.358 46.1737 170.565 46.0199 170.719C46.2446 170.863 46.4632 171 46.6757 171.134C46.8883 171.267 47.1009 171.407 47.3154 171.551C47.528 171.695 47.7426 171.834 47.9531 171.968L47.2932 172.877L42.3396 169.282L42.8234 168.618ZM49.9693 165.407C50.2062 165.622 50.4127 165.796 50.5908 165.935C50.7669 166.075 50.9835 166.237 51.2406 166.423C52.0099 166.98 52.8196 167.336 53.6739 167.494C54.5281 167.65 55.348 167.583 56.1375 167.29C56.9249 166.998 57.6031 166.462 58.1719 165.678C58.6314 165.045 58.925 164.429 59.0505 163.83C59.176 163.233 59.1537 162.66 58.9837 162.115C58.8136 161.571 58.5181 161.047 58.0991 160.549C57.68 160.049 57.1598 159.573 56.5403 159.123C56.0686 158.781 55.6678 158.644 55.3399 158.717C55.0119 158.785 54.7063 158.992 54.4269 159.334C54.1476 159.676 53.8318 160.089 53.4795 160.575L49.9693 165.407Z" fill="#F2ECE3"/>
<path d="M66.2875 183.877C64.8198 183.282 63.6639 182.525 62.8137 181.604C61.9635 180.684 61.3805 179.676 61.0586 178.585C60.7367 177.494 60.6254 176.385 60.7266 175.255C60.8238 174.128 61.0768 173.063 61.4857 172.059C61.8805 171.085 62.4412 170.168 63.17 169.304C63.8987 168.441 64.7672 167.727 65.7773 167.166C66.7875 166.605 67.9008 166.273 69.1175 166.176C70.3361 166.077 71.6236 166.304 72.9819 166.856C74.401 167.431 75.5265 168.184 76.3545 169.113C77.1824 170.043 77.7593 171.065 78.0893 172.178C78.4193 173.292 78.5488 174.411 78.48 175.533C78.4112 176.654 78.1804 177.703 77.7836 178.674C77.397 179.632 76.8383 180.541 76.1095 181.405C75.3807 182.27 74.5103 182.986 73.4981 183.553C72.4839 184.122 71.3746 184.456 70.164 184.561C68.9515 184.662 67.66 184.436 66.2875 183.877ZM66.7186 182.948C67.6761 183.334 68.5911 183.47 69.4677 183.349C70.3442 183.227 71.156 182.919 71.907 182.423C72.656 181.929 73.322 181.31 73.901 180.565C74.4819 179.82 74.9455 179.025 75.2897 178.174C75.6783 177.217 75.9334 176.215 76.0528 175.166C76.1723 174.118 76.1338 173.105 75.9374 172.128C75.7411 171.15 75.3646 170.271 74.8079 169.496C74.2512 168.721 73.4941 168.14 72.5366 167.751C71.5791 167.362 70.658 167.231 69.7713 167.356C68.8847 167.482 68.0668 167.794 67.3178 168.287C66.5688 168.783 65.9028 169.403 65.3218 170.148C64.7409 170.893 64.2753 171.696 63.925 172.561C63.5809 173.411 63.34 174.346 63.2024 175.369C63.0647 176.391 63.0809 177.405 63.2489 178.407C63.4169 179.411 63.7793 180.312 64.336 181.114C64.8886 181.917 65.6842 182.527 66.7186 182.948Z" fill="#F2ECE3"/>
<path d="M96.5128 178.296C96.5472 176.721 96.1585 175.445 95.3528 174.47C94.5451 173.494 93.4237 172.913 91.9864 172.729C91.1098 172.617 90.2637 172.698 89.4479 172.972C88.63 173.245 87.8912 173.692 87.2231 174.312C86.5551 174.931 85.9944 175.709 85.5389 176.64C85.0834 177.573 84.7777 178.65 84.6219 179.873C84.4235 181.427 84.5449 182.836 84.9862 184.101C85.4296 185.367 86.1118 186.395 87.0369 187.185C87.96 187.974 89.0329 188.448 90.2556 188.604C91.3285 188.741 92.4176 188.632 93.5228 188.278C94.6261 187.923 95.5654 187.326 96.3468 186.486L96.9257 187.089C96.0897 187.972 95.2253 188.626 94.3326 189.049C93.4378 189.472 92.5694 189.727 91.7293 189.812C90.8872 189.897 90.126 189.897 89.4499 189.81C88.209 189.652 87.1017 189.284 86.128 188.705C85.1522 188.128 84.3384 187.391 83.6907 186.492C83.0408 185.595 82.5813 184.587 82.3141 183.47C82.0449 182.352 81.9922 181.174 82.1501 179.933C82.2999 178.761 82.6238 177.644 83.1198 176.583C83.6178 175.522 84.2777 174.589 85.1016 173.79C85.9276 172.988 86.9134 172.391 88.0632 172C89.213 171.609 90.5066 171.508 91.9439 171.69C92.869 171.81 93.7293 172.045 94.5249 172.399C95.3184 172.753 96.0634 173.233 96.7577 173.842L96.8043 172.488L98.1403 172.66L97.4055 178.409L96.5128 178.296Z" fill="#F2ECE3"/>
<path d="M114.574 176.741C114.456 175.765 114.272 174.962 114.025 174.334C113.778 173.707 113.408 173.255 112.92 172.978C112.43 172.7 111.756 172.615 110.898 172.719L108.784 172.935L110.147 186.484C110.193 186.932 110.228 187.316 110.252 187.64C110.278 187.964 110.284 188.237 110.272 188.454C110.618 188.403 110.962 188.351 111.301 188.3C111.639 188.249 111.981 188.197 112.327 188.144L112.438 189.237L106.596 189.834L106.511 189.015C107.138 188.917 107.549 188.725 107.746 188.438C107.942 188.148 108.029 187.778 108.009 187.318C107.987 186.859 107.946 186.348 107.888 185.786L106.622 173.18L104.066 173.468C103.021 173.573 102.319 173.998 101.96 174.739C101.6 175.478 101.497 176.585 101.649 178.061L100.727 178.154L100.341 172.893L114.833 171.409L115.519 176.64L114.574 176.741Z" fill="#F2ECE3"/>
<path d="M131.222 184.928C129.736 185.472 128.37 185.687 127.123 185.575C125.874 185.464 124.766 185.11 123.795 184.515C122.825 183.919 121.995 183.172 121.313 182.27C120.629 181.367 120.1 180.407 119.728 179.391C119.367 178.403 119.167 177.348 119.129 176.219C119.088 175.089 119.254 173.978 119.627 172.885C119.999 171.792 120.602 170.8 121.438 169.909C122.274 169.016 123.382 168.32 124.758 167.818C126.2 167.292 127.538 167.095 128.775 167.229C130.011 167.362 131.125 167.731 132.117 168.336C133.111 168.941 133.957 169.682 134.659 170.559C135.362 171.437 135.892 172.369 136.252 173.354C136.607 174.326 136.803 175.375 136.844 176.504C136.884 177.634 136.72 178.749 136.35 179.851C135.981 180.954 135.382 181.946 134.554 182.834C133.726 183.721 132.615 184.419 131.222 184.928ZM130.918 183.948C131.888 183.594 132.657 183.077 133.226 182.401C133.793 181.725 134.19 180.95 134.412 180.079C134.637 179.209 134.714 178.302 134.643 177.361C134.574 176.419 134.384 175.518 134.068 174.658C133.714 173.688 133.228 172.773 132.615 171.917C131.999 171.059 131.291 170.334 130.489 169.739C129.688 169.146 128.819 168.749 127.888 168.551C126.955 168.35 126.003 168.427 125.034 168.781C124.062 169.136 123.291 169.656 122.718 170.344C122.143 171.035 121.746 171.814 121.523 172.682C121.299 173.553 121.222 174.46 121.293 175.401C121.361 176.344 121.556 177.253 121.876 178.128C122.189 178.988 122.641 179.844 123.226 180.695C123.811 181.545 124.503 182.286 125.301 182.917C126.098 183.547 126.973 183.974 127.922 184.195C128.872 184.415 129.87 184.332 130.918 183.948Z" fill="#F2ECE3"/>
<path d="M144.73 177.49C145.236 177.11 145.516 176.745 145.564 176.401C145.611 176.057 145.52 175.688 145.285 175.294C145.048 174.899 144.769 174.462 144.443 173.978L138.406 165.03C138.222 164.753 138.048 164.484 137.89 164.219C137.73 163.953 137.589 163.715 137.463 163.496C137.224 163.678 136.983 163.86 136.744 164.04C136.505 164.223 136.265 164.403 136.026 164.583L135.412 163.672C136.135 163.164 136.88 162.646 137.649 162.117C138.416 161.589 139.202 161.055 140.004 160.514C141.342 159.611 142.57 159.002 143.688 158.692C144.803 158.38 145.803 158.36 146.688 158.627C147.571 158.897 148.332 159.457 148.971 160.312C149.362 160.834 149.662 161.449 149.872 162.162C150.081 162.874 150.109 163.66 149.953 164.518C149.799 165.377 149.372 166.271 148.676 167.205C147.977 168.138 146.919 169.083 145.496 170.043C145.439 170.079 145.336 170.15 145.184 170.251C145.03 170.354 144.882 170.445 144.734 170.524L146.759 173.527C147.01 173.901 147.224 174.223 147.398 174.496C147.573 174.771 147.708 175.008 147.801 175.205C148.012 175.041 148.218 174.883 148.415 174.731C148.613 174.577 148.817 174.425 149.026 174.273C149.234 174.122 149.439 173.97 149.637 173.814L150.265 174.747L145.19 178.172L144.73 177.49ZM144.162 169.676C144.443 169.526 144.68 169.393 144.87 169.273C145.062 169.154 145.287 169.006 145.55 168.83C146.336 168.298 146.949 167.658 147.39 166.911C147.83 166.162 148.048 165.366 148.042 164.526C148.036 163.686 147.765 162.864 147.224 162.063C146.787 161.413 146.309 160.929 145.789 160.605C145.269 160.283 144.724 160.107 144.153 160.081C143.583 160.055 142.991 160.152 142.378 160.374C141.765 160.597 141.139 160.923 140.506 161.35C140.022 161.676 139.759 162.006 139.71 162.338C139.663 162.67 139.753 163.028 139.979 163.407C140.206 163.787 140.487 164.225 140.821 164.723L144.162 169.676Z" fill="#F2ECE3"/>
<path d="M161.2 166.822L160.581 166.277C160.976 165.804 161.152 165.393 161.113 165.049C161.073 164.702 160.891 164.366 160.569 164.04C160.247 163.713 159.858 163.35 159.409 162.955L151.297 155.834C151.046 155.615 150.811 155.397 150.591 155.182C150.37 154.965 150.172 154.769 149.994 154.591C149.809 154.828 149.623 155.065 149.437 155.301C149.253 155.538 149.066 155.773 148.882 156.01L148.056 155.285L151.767 151.06L152.384 151.605C151.99 152.079 151.813 152.496 151.854 152.852C151.894 153.21 152.077 153.546 152.399 153.862C152.72 154.176 153.107 154.532 153.556 154.929L156.129 157.186L157.409 155.617C158.229 154.629 159.016 153.88 159.767 153.364C160.518 152.85 161.239 152.54 161.927 152.437C162.615 152.334 163.273 152.392 163.895 152.619C164.518 152.846 165.103 153.198 165.654 153.682C166.53 154.451 167.101 155.283 167.366 156.182C167.632 157.079 167.64 157.971 167.391 158.862C167.142 159.753 166.68 160.579 166.012 161.342L161.2 166.822ZM162.972 163.287C163.158 163.099 163.381 162.866 163.634 162.589C163.887 162.314 164.121 162.055 164.336 161.81C164.551 161.565 164.69 161.405 164.757 161.33C165.239 160.779 165.567 160.18 165.737 159.53C165.907 158.88 165.868 158.216 165.626 157.536C165.381 156.856 164.891 156.192 164.152 155.544C163.35 154.842 162.601 154.443 161.905 154.354C161.208 154.265 160.571 154.364 159.996 154.656C159.419 154.947 158.915 155.336 158.486 155.824C158.156 156.198 157.86 156.544 157.597 156.856C157.334 157.168 157.083 157.484 156.844 157.808C158.059 158.874 159.044 159.739 159.802 160.405C160.559 161.069 161.146 161.589 161.559 161.963C161.974 162.338 162.283 162.621 162.492 162.814C162.696 163.01 162.856 163.168 162.972 163.287ZM170.498 156.231L169.879 155.688C170.271 155.19 170.447 154.769 170.407 154.423C170.369 154.079 170.182 153.745 169.854 153.425C169.528 153.103 169.144 152.751 168.707 152.364L160.595 145.245C160.344 145.024 160.105 144.809 159.88 144.599C159.654 144.39 159.457 144.192 159.293 144.002C159.109 144.238 158.923 144.473 158.737 144.71C158.553 144.947 158.366 145.182 158.182 145.419L157.356 144.694L161.067 140.469L161.684 141.014C161.289 141.489 161.113 141.904 161.154 142.263C161.196 142.619 161.376 142.955 161.696 143.271C162.018 143.587 162.405 143.941 162.854 144.338L170.834 151.344C171.172 151.641 171.458 151.903 171.692 152.129C171.925 152.356 172.111 152.554 172.253 152.722C172.437 152.486 172.628 152.247 172.818 152.004C173.008 151.761 173.197 151.522 173.383 151.285L174.211 152.01L170.498 156.231Z" fill="#F2ECE3"/>
<path d="M100.116 193.855C48.4288 193.855 6.37732 151.803 6.37732 100.116C6.37732 48.4288 48.4288 6.37732 100.116 6.37732C151.803 6.37732 193.855 48.4267 193.855 100.114C193.855 151.801 151.803 193.855 100.116 193.855ZM100.116 7.68302C49.1474 7.68302 7.68302 49.1474 7.68302 100.116C7.68302 151.085 49.1474 192.551 100.116 192.551C151.085 192.551 192.551 151.087 192.551 100.116C192.551 49.1474 151.085 7.68302 100.116 7.68302Z" fill="#F2ECE3"/>
<path d="M100.116 200.116C44.9773 200.116 0.116089 155.255 0.116089 100.114C0.116089 44.9733 44.9773 0.116089 100.116 0.116089C155.257 0.116089 200.116 44.9753 200.116 100.116C200.116 155.257 155.257 200.116 100.116 200.116ZM100.116 3.59389C46.8944 3.59389 3.59592 46.8944 3.59592 100.114C3.59592 153.338 46.8944 196.636 100.116 196.636C153.338 196.636 196.636 153.336 196.636 100.114C196.636 46.8944 153.338 3.59389 100.116 3.59389Z" fill="#F2ECE3"/>
<path d="M18.3391 103.815C20.3817 103.815 22.0376 102.159 22.0376 100.116C22.0376 98.0735 20.3817 96.4176 18.3391 96.4176C16.2965 96.4176 14.6407 98.0735 14.6407 100.116C14.6407 102.159 16.2965 103.815 18.3391 103.815Z" fill="#F2ECE3"/>
<path d="M181.893 103.815C183.936 103.815 185.591 102.159 185.591 100.116C185.591 98.0735 183.936 96.4176 181.893 96.4176C179.85 96.4176 178.195 98.0735 178.195 100.116C178.195 102.159 179.85 103.815 181.893 103.815Z" fill="#F2ECE3"/>
<path d="M153.465 96.3387C153.411 96.2962 153.39 96.2031 153.354 96.1343C154.441 94.4197 153.854 92.8913 151.577 92.4642C151.629 92.3083 151.678 92.1544 151.73 92.0067C152.346 90.3386 151.637 89.0572 149.901 88.7232C149.536 88.6523 149.16 88.628 148.759 88.5774C148.73 88.3851 148.71 88.2212 148.676 88.0592C148.273 86.0835 146.907 85.3122 145.014 85.9863C144.704 86.0976 144.4 86.2171 144.036 86.3547C143.724 85.4458 143.074 84.9417 142.208 84.6563V82.2939C143.66 81.5267 144.453 80.4052 143.908 78.721C145.542 77.4517 145.649 76.3586 144.374 74.1115C144.919 73.1864 144.666 72.2674 144.21 71.3686C143.726 70.4171 142.858 70.0244 142.131 69.8989C141.51 69.3382 141.127 68.8523 140.627 68.5851C140.093 68.3017 139.445 68.2288 138.868 68.0669C138.842 67.9434 138.813 67.8604 138.807 67.7794C138.732 66.9495 138.453 66.2106 137.805 65.6559C137.155 65.0972 136.406 64.9292 135.558 65.0668C135.167 65.1296 134.825 64.9434 134.58 64.5689C134.712 64.2652 134.858 63.9656 134.971 63.6539C135.422 62.3846 134.862 61.0566 133.649 60.4777C133.433 60.3744 133.131 60.4534 132.961 60.087C133.196 59.2388 133.048 58.4108 132.281 57.7549C131.495 57.0849 130.574 57.1598 129.655 57.3136C129.416 56.7084 129.24 56.1456 128.979 55.6233C128.467 54.599 127.311 54.1213 126.198 54.4229C125.999 54.4776 125.809 54.5626 125.627 54.6294C125.481 54.5363 125.376 54.4755 125.275 54.4047C125.171 54.3298 125.084 54.2346 124.979 54.1658C123.76 53.3804 122.517 53.3743 121.264 54.0767C121.082 54.178 120.93 54.3379 120.754 54.4512C120.519 54.601 120.291 54.6253 120.108 54.346C120.266 53.8703 120.453 53.3966 120.58 52.9067C121.011 51.2568 120.072 49.8884 118.361 49.6434C118.204 49.6232 118.05 49.5665 117.88 49.524C117.837 49.3175 117.805 49.1556 117.77 48.9957C117.505 47.7628 116.797 47.1495 115.554 47.2021C115.019 47.2264 114.491 47.4288 113.963 47.5624C113.689 47.6313 113.489 47.9329 113.072 47.779C112.778 46.7264 112.048 46.0158 110.94 45.7223C109.833 45.4288 108.867 45.8235 107.946 46.4632C107.325 45.8256 106.507 45.7567 105.742 45.6171C105.541 45.1393 105.373 44.7041 105.183 44.285C104.93 43.7324 104.553 43.285 103.983 43.032C102.472 42.366 100.972 42.2061 99.4946 43.119C99.359 43.204 99.2112 43.2668 99.023 43.3619C98.8752 43.1656 98.7497 43.0016 98.6242 42.8376C98.2456 42.3437 97.7274 42.0441 97.1403 41.9226C95.7962 41.6392 94.533 41.8133 93.4338 42.7162C93.2151 42.8984 92.9945 43.0846 92.7657 43.2789C92.5613 43.034 92.4095 42.8295 92.2394 42.6433C91.6524 42.0016 90.9034 41.7425 90.0612 41.872C89.6118 41.9409 89.1807 42.1372 88.7475 42.2951C88.4782 42.3963 88.2292 42.6028 87.9539 42.6433C87.0247 42.783 86.46 43.3781 85.9964 44.113C85.8466 44.3518 85.7373 44.619 85.6097 44.8721C84.1927 44.2769 82.9842 44.7101 81.7696 45.279C80.4416 45.9005 79.9902 47.1272 79.5671 48.3924C78.1197 48.6191 77.2594 49.443 77.0144 50.8236C76.2958 51.0423 75.6966 51.0929 75.0002 50.856C73.9556 50.4957 72.905 50.5605 72.158 51.5929C72.0649 51.7224 71.9151 51.8601 71.7673 51.8925C70.992 52.0585 70.5872 52.6597 70.1863 53.2164C69.6398 53.2569 69.1317 53.265 68.6337 53.3379C68.0628 53.4269 67.6782 53.8379 67.3928 54.2326C65.1377 54.3379 64.7571 54.6395 64.2186 56.7023C64 56.7549 63.755 56.8157 63.5162 56.8683C61.6619 57.2893 61.1578 58.674 60.9594 60.0971C60.8704 60.7429 61.087 61.3542 61.6092 61.8077C61.8582 62.0243 62.0991 62.249 62.3259 62.4555C62.1275 62.8502 61.9291 63.1741 61.7935 63.5243C61.2671 64.9049 61.6396 66.0041 62.8481 66.8321C63.4534 67.247 64.1275 67.4333 64.8421 67.4677C64.7713 68.16 64.7065 68.7714 64.6437 69.403C64.3219 69.6297 63.9372 69.8281 63.6518 70.1216C63.3765 70.401 63.2024 70.7775 63.0162 71.0609C62.3866 70.7127 61.8623 70.3261 61.2793 70.1216C60.425 69.822 59.4594 69.8443 58.8076 71.0467C58.6719 71.2977 58.5404 71.5528 58.4169 71.7876C56.3986 71.3018 55.8703 71.5285 54.8196 73.3221C53.5828 73.6358 53.103 74.5367 53.1516 75.7472C53.0362 75.814 52.9633 75.8606 52.8864 75.895C51.4107 76.5792 51.0058 77.3019 51.2021 78.8971C51.2264 79.0934 51.2305 79.2878 51.2447 79.47C49.4653 79.887 48.3944 81.4234 49.5422 83.1543C49.0928 83.8182 49.0645 84.551 49.3863 85.3284C48.8013 85.7798 48.4187 86.3061 48.4308 87.0572C48.445 87.7535 48.6211 88.3871 48.941 88.9985C49.275 89.6362 49.8884 89.9236 50.4855 90.209C50.522 91.2273 50.9511 91.9641 51.8034 92.4297C52.6637 92.9014 53.5362 93.3346 54.5848 92.7597C55.2002 93.8407 56.1496 94.1929 57.2812 94.1686C57.3703 94.1686 57.4634 94.2901 57.6173 94.4014C57.0403 94.7537 56.4958 95.0391 56.0099 95.4035C55.4512 95.8205 55.4229 96.5695 55.1476 97.1485C53.2143 96.6019 52.5929 96.8833 51.7487 98.6789C51.5341 98.6971 51.2852 98.7052 51.0422 98.7416C50.1596 98.8853 49.2973 99.106 48.5725 99.6566C47.6333 100.373 47.4167 101.302 47.9167 102.351C48.0381 102.612 48.192 102.859 48.3539 103.153C47.9997 103.29 47.6717 103.383 47.3762 103.533C46.3417 104.066 45.7871 104.881 45.868 106.088C45.9085 106.655 46.0502 107.169 46.3863 107.626C46.611 107.93 46.8296 108.234 47.032 108.509C46.5988 110.46 47.7992 111.438 49.1474 112.282C49.6839 114.793 51.605 116.011 54.0342 115.426C54.2305 115.378 54.4289 115.331 54.5929 115.291C54.9755 115.776 55.3095 116.204 55.6537 116.645C55.4877 116.906 55.3237 117.153 55.1678 117.402C54.5787 118.349 54.6779 119.264 55.348 120.112C56.0585 121.013 56.9634 121.594 58.1679 121.574C58.4553 121.572 58.7468 121.574 59.0566 121.574C59.2064 121.9 59.34 122.21 59.4958 122.505C59.7813 123.038 60.1578 123.491 60.6841 123.799C61.4453 124.242 62.2671 124.315 62.9392 123.738C63.5607 123.206 64.2955 123.177 65.002 122.872C65.5405 124.252 66.4211 125.042 67.7997 124.878C68.2329 125.198 68.5648 125.463 68.913 125.696C69.0851 125.811 69.2916 125.886 69.49 125.953C70.5872 126.323 71.7876 125.908 72.3564 124.932C72.5204 124.649 72.5912 124.305 72.6682 123.981C72.7431 123.667 72.8807 123.436 73.2006 123.343C75.065 124.311 75.4557 124.279 77.1177 122.965C77.6541 123.55 78.231 124.121 79.1319 124.068C80.0287 124.013 80.5246 123.357 81.059 122.762C81.3445 122.762 81.6036 122.803 81.8465 122.754C82.6603 122.604 83.1826 121.985 83.1866 121.151C83.1866 120.859 83.1198 120.562 83.0328 120.285C82.8344 119.655 82.4214 119.181 81.8647 118.835C81.5914 118.665 81.4092 118.461 81.5084 118.056C82.6319 117.73 83.8101 117.726 84.9842 117.772C86.9498 117.855 88.8406 118.25 90.5552 119.285C91.1017 119.614 91.5815 120.017 91.9945 120.509C93.0674 121.793 93.8305 123.232 94.3346 124.831C95.9865 130.062 95.8063 133.929 95.6727 139.73C95.3447 153.988 90.1746 156.575 89.958 156.872H109.57C109.398 156.714 107.106 153.749 105.946 148.091C104.715 142.093 103.268 133.111 107.58 125.687C108.855 123.491 109.493 122.272 112.345 120.066C114.533 118.372 117.195 117.487 119.801 116.594C120.313 116.42 120.872 116.367 121.414 116.276C121.503 116.262 121.61 116.353 121.817 116.44C121.629 116.602 121.529 116.734 121.394 116.789C121.163 116.89 120.9 116.918 120.671 117.023C119.772 117.446 119.479 118.363 119.948 119.256C120.064 119.473 120.208 119.673 120.327 119.864C119.989 120.58 119.76 121.27 120.066 121.993C120.436 122.868 121.295 123.086 122.042 123.323C122.793 124.661 123.515 125.032 124.857 124.805C125.106 124.762 125.349 124.681 125.59 124.604C125.87 124.515 126.143 124.406 126.416 124.309C126.945 124.623 127.471 124.868 127.831 125.382C128.127 125.811 128.603 126.019 129.109 126.153C130.275 126.467 131.275 126.1 132.19 125.408C132.449 125.212 132.684 124.983 132.908 124.787C134.783 125.88 137.034 125.21 138.56 122.578C139.449 122.787 140.356 122.932 141.261 122.528C142.174 122.119 142.718 121.414 142.979 120.479C143.836 120.442 144.461 120.062 145.109 119.619C145.72 119.206 146.603 119.319 147.198 118.789C147.54 118.481 147.856 118.141 148.149 117.787C148.307 117.596 148.39 117.347 148.504 117.131C148.726 117.048 148.929 116.991 149.117 116.9C150.305 116.329 150.621 115.343 149.979 114.175C149.817 113.884 149.597 113.622 149.378 113.365C149.194 113.147 148.975 112.956 148.765 112.744C149.006 112.436 149.23 112.183 149.419 111.908C149.749 111.422 149.828 110.869 149.609 110.331C149.241 109.432 148.68 108.693 147.607 108.63C147.123 108.598 146.945 108.345 146.85 107.869C147.068 107.784 147.289 107.655 147.524 107.618C147.811 107.574 148.117 107.616 148.411 107.6C149.844 107.515 150.842 106.752 151.328 105.379C151.382 105.224 151.465 105.08 151.516 104.973C153.805 103.922 154.38 102.159 153.123 100.144C153.417 99.7963 153.753 99.4704 154.002 99.0857C154.652 98.0675 154.451 97.1161 153.465 96.3387ZM145.945 93.0289C146.21 92.5087 146.66 92.203 147.232 92.116C147.605 92.0613 147.929 92.4338 147.907 92.8528C147.878 93.5067 147.026 94.1727 146.386 94.0452C145.998 93.9723 145.743 93.4257 145.945 93.0289ZM141.668 91.8589C142.07 90.9621 142.631 90.1928 143.516 89.7273C143.991 89.4762 144.55 89.8629 144.577 90.4985C144.574 90.8589 144.402 91.2334 144.095 91.537C143.643 91.9844 143.099 92.2941 142.487 92.4702C142.34 92.5127 142.159 92.4804 142.004 92.4419C141.755 92.3812 141.572 92.0735 141.668 91.8589ZM140.034 108.349C140.736 108.167 141.374 108.307 141.888 108.825C142.02 108.956 142.232 109.185 142.149 109.454C142.072 109.703 141.744 109.845 141.562 109.837C140.921 109.817 140.336 109.572 139.886 109.092C139.674 108.869 139.769 108.416 140.034 108.349ZM139.55 100.865C138.981 100.691 138.862 100.086 139.327 99.693C139.921 99.1951 140.621 98.942 141.398 98.944C141.862 98.944 142.143 99.3084 142.099 99.7841C142.062 100.197 141.846 100.509 141.487 100.665C141.113 100.827 140.712 100.972 140.384 100.995C140.036 101.019 139.785 100.936 139.55 100.865ZM140.951 96.9885C140.617 96.9946 140.331 96.6323 140.408 96.2962C140.607 95.4177 141.653 94.4642 142.526 94.361C143.002 94.3063 143.374 94.6788 143.277 95.112C143.097 95.9156 141.785 96.9764 140.951 96.9885ZM139.439 90.292C139.576 89.6038 139.917 89.041 140.532 88.6888C140.69 88.5956 140.983 88.545 141.109 88.6341C141.281 88.7536 141.386 89.0066 141.417 89.1341C141.609 90.0329 140.801 90.6848 140.044 90.8609C139.672 90.9459 139.368 90.6665 139.439 90.292ZM139.672 92.4804C139.653 93.4358 138.516 94.6241 137.572 94.6747C137.165 94.699 136.848 94.361 136.937 93.9419C137.143 92.9844 137.696 92.2678 138.582 91.8589C139.137 91.6018 139.682 91.9459 139.672 92.4804ZM135.364 96.7051C135.69 96.5837 136.03 96.5958 136.297 96.8833C136.546 97.1505 136.562 97.5493 136.333 97.9339C135.85 98.7477 135.058 99.0655 134.196 99.0493C134.06 99.0473 133.937 99.0169 133.813 98.9987C133.224 98.9056 133.018 98.4542 133.39 98.0169C133.922 97.3995 134.607 96.9865 135.364 96.7051ZM133.967 91.6686C133.959 90.705 134.293 89.8669 135.038 89.2353C135.186 89.1119 135.41 89.0734 135.505 89.0349C135.904 89.0167 136.208 89.2839 136.176 89.5775C136.054 90.5633 135.657 91.4236 134.886 92.0654C134.51 92.3791 133.969 92.1423 133.967 91.6686ZM133.603 101.341C134.313 101.076 135.06 100.981 135.815 101.015C136.137 101.031 136.374 101.197 136.455 101.517C136.54 101.853 136.335 102.072 136.086 102.244C135.552 102.614 134.949 102.75 134.307 102.746C133.884 102.74 133.471 102.711 133.149 102.383C132.967 102.201 132.926 101.883 133.107 101.707C133.252 101.564 133.416 101.414 133.603 101.341ZM136.157 104.418C136.493 104.274 136.864 104.161 137.22 104.153C137.582 104.143 137.91 104.254 138.228 104.345C138.627 104.46 138.748 104.912 138.497 105.254C138.259 105.574 137.939 105.813 137.546 105.744C137.062 105.659 136.578 105.511 136.125 105.315C135.744 105.153 135.769 104.578 136.157 104.418ZM138.475 88.4357C138.631 88.5309 138.75 88.7212 138.785 88.8244C139.03 89.541 138.281 90.1989 137.591 90.3507C137.352 90.4014 137.054 90.1503 137.091 89.9196C137.192 89.3082 137.481 88.8123 138.02 88.4924C138.145 88.4175 138.37 88.373 138.475 88.4357ZM135.601 73.2816C135.995 72.8605 136.441 72.482 136.884 72.1075C136.971 72.0326 137.117 72.0143 137.238 71.9981C137.546 71.9536 137.823 72.0164 138.008 72.2937C138.188 72.569 138.19 72.8727 137.993 73.1196C137.508 73.735 136.833 74.3828 135.991 74.1703C135.848 74.1358 135.637 74.0124 135.562 73.8585C135.491 73.6986 135.495 73.3949 135.601 73.2816ZM135.728 75.7978C136.022 75.8181 136.2 76.1723 136.101 76.4699C135.989 76.814 135.779 77.0651 135.425 77.146C134.977 77.2513 134.53 77.3707 134.206 77.3869C133.983 77.397 133.902 77.3606 133.819 77.3505C133.544 77.3161 133.376 76.9902 133.542 76.7918C134.113 76.1177 134.827 75.7371 135.728 75.7978ZM132.182 71.2208C132.267 70.6338 132.629 70.2431 133.115 69.9576C133.552 69.7005 134.097 70.0204 134.109 70.5285C134.129 71.2471 133.269 71.9536 132.556 71.7977C132.325 71.7471 132.145 71.4779 132.182 71.2208ZM132.428 73.1358C132.955 72.9111 133.55 73.3767 133.524 74.0002C133.457 74.5184 133.018 74.6925 132.601 74.895C132.212 75.0792 131.813 75.2067 131.424 74.9051C131.206 74.733 131.137 74.4881 131.267 74.233C131.522 73.731 131.912 73.3544 132.428 73.1358ZM128.7 77.0225C128.949 76.4699 129.475 76.2209 130.024 76.393C130.317 76.4861 130.445 76.8707 130.25 77.0934C129.971 77.4193 129.637 77.6521 129.196 77.6865C128.831 77.7169 128.554 77.3464 128.7 77.0225ZM128.43 73.7553C128.388 73.5974 128.291 73.4294 128.329 73.1702C128.374 72.8666 128.598 72.5407 128.811 72.2411C129.078 71.8666 129.651 71.984 129.823 72.4212C130.058 73.0245 129.675 73.8221 129.032 74.0589C128.809 74.1399 128.493 73.9901 128.43 73.7553ZM130.73 90.7475C131.003 90.5329 131.414 90.4864 131.663 90.6463C131.937 90.8265 132.011 91.1038 131.993 91.4054C131.961 91.8791 131.76 92.2799 131.408 92.6059C131.02 92.9621 130.475 92.8306 130.313 92.3326C130.262 92.1787 130.246 92.0127 130.226 91.9115C130.289 91.4297 130.374 91.0289 130.73 90.7475ZM129.564 97.0412C129.894 96.2011 130.52 95.6606 131.378 95.4096C131.724 95.3083 132.135 95.6019 132.121 95.9015C132.111 95.9824 132.113 96.0735 132.084 96.1464C131.758 96.9987 131.151 97.5432 130.271 97.7679C129.785 97.8914 129.388 97.4825 129.564 97.0412ZM130.601 68.3888C131.052 68.1094 131.578 68.3827 131.617 69.0163C131.568 69.156 131.53 69.4151 131.402 69.6216C131.133 70.0548 130.773 70.4232 130.281 70.5973C130.109 70.658 129.839 70.6479 129.71 70.5467C129.574 70.4435 129.479 70.1762 129.503 70.0022C129.601 69.2957 129.997 68.7612 130.601 68.3888ZM130.044 62.0364C130.036 62.1214 130.046 62.2085 130.018 62.2854C129.854 62.7085 129.542 62.9939 129.103 63.0708C128.928 63.0992 128.661 63.0162 128.548 62.8866C128.437 62.7591 128.39 62.4797 128.451 62.3178C128.588 61.9554 128.858 61.6801 129.26 61.5769C129.592 61.4898 130.003 61.7307 130.044 62.0364ZM126.888 61.2307C127.034 60.6032 128.013 59.6922 128.667 59.5789C129.03 59.5161 129.366 59.7935 129.343 60.1376C129.291 60.9635 128.376 61.9676 127.582 62.0648C127.54 62.0708 127.497 62.0668 127.455 62.0668C127.086 62.0445 126.799 61.6194 126.888 61.2307ZM127.552 64.0729C127.914 63.9696 128.327 64.3239 128.319 64.7632C128.299 64.8219 128.285 64.9555 128.216 65.0506C127.817 65.6033 127.311 66.0324 126.647 66.2389C126.396 66.3179 126.143 66.2754 125.963 66.0608C125.783 65.8442 125.789 65.579 125.92 65.3543C126.297 64.7207 126.837 64.2733 127.552 64.0729ZM112.886 101.521C112.436 101.167 112.187 100.693 112.151 100.12C112.108 99.4825 112.679 98.9056 113.422 98.9198C113.491 98.944 113.673 98.9683 113.797 99.0635C114.282 99.4339 114.582 99.9339 114.659 100.541C114.718 101.017 114.45 101.335 114.062 101.557C113.665 101.782 113.262 101.817 112.886 101.521ZM112.333 104.515C111.894 104.29 111.645 103.914 111.645 103.41C111.643 102.802 112.216 102.418 112.766 102.679C113.025 102.8 113.276 102.97 113.481 103.169C113.616 103.3 113.687 103.517 113.714 103.632C113.884 104.319 112.922 104.813 112.333 104.515ZM114.444 105.545C114.505 105.06 115.311 104.636 115.705 104.999C115.793 105.078 115.894 105.163 115.918 105.256C115.946 105.367 115.908 105.462 115.867 105.523C115.653 105.849 115.357 106.051 114.958 106.092C114.657 106.122 114.41 105.835 114.444 105.545ZM115.873 99.0493C115.511 99.1525 115.157 99.023 114.882 98.6687C114.562 98.2537 114.278 97.7699 114.4 97.0796C114.42 96.9602 114.505 96.6727 114.661 96.4399C114.938 96.0229 115.523 95.9622 115.876 96.3023C116.418 96.8306 116.685 97.4825 116.578 98.2436C116.521 98.6485 116.284 98.9319 115.873 99.0493ZM116.485 95.4258C116.098 94.7294 115.76 94.0026 115.693 93.3042C115.673 92.4844 116.212 92.1038 116.867 92.3791C117.056 92.4581 117.246 92.5775 117.384 92.7253C118.284 93.6929 118.574 94.8164 118.177 96.0938C118.141 96.2071 118.062 96.3124 117.989 96.4136C117.835 96.6221 117.497 96.693 117.323 96.5027C117.017 96.1687 116.703 95.8205 116.485 95.4258ZM117.831 99.774C117.989 99.7416 118.169 99.7457 118.325 99.7841C118.948 99.94 119.787 101.035 119.799 101.758C119.77 102.296 119.408 102.689 118.904 102.958C118.475 103.193 117.894 103.068 117.515 102.689C117.153 102.327 116.902 101.887 116.784 101.387C116.616 100.673 117.106 99.9177 117.831 99.774ZM119.246 93.5512C119.444 93.0735 119.874 92.8245 120.343 92.8751C120.803 92.9237 121.171 93.2638 121.278 93.7658C121.321 93.9703 121.374 94.1808 121.355 94.446C121.339 94.6909 121.258 94.9824 121.143 95.2476C120.936 95.7152 120.398 95.9804 119.892 95.9015C119.4 95.8225 119.21 95.4581 119.096 95.031C118.961 94.5168 119.05 94.0249 119.246 93.5512ZM119.61 98.9562C119.584 98.8347 119.578 98.7072 119.568 98.61C119.616 98.0068 119.825 97.5209 120.353 97.2294C120.592 97.0978 120.845 97.1019 121.062 97.28C121.861 97.9278 121.693 99.1303 120.758 99.5412C120.212 99.776 119.728 99.5331 119.61 98.9562ZM120.946 102.325C121.248 101.815 121.851 101.875 122.131 102.414C122.297 102.736 122.311 103.053 122.104 103.355C121.989 103.527 121.851 103.685 121.7 103.829C121.422 104.098 121.078 104.201 120.932 104.025C120.762 103.817 120.564 103.57 120.552 103.311C120.531 102.908 120.783 102.606 120.946 102.325ZM121.653 100.493C121.677 100.209 121.772 99.9198 121.894 99.6566C122.204 98.9906 122.665 98.4562 123.327 98.112C123.6 97.9724 123.882 97.8732 124.165 98.0493C124.499 98.2497 124.525 98.5918 124.501 99.0189C124.459 99.1424 124.424 99.3651 124.311 99.5311C123.843 100.193 123.266 100.742 122.517 101.078C122.09 101.27 121.615 100.956 121.653 100.493ZM123.503 95.6383C122.9 95.8994 122.43 95.6039 122.347 94.9379C122.337 94.8529 122.337 94.7719 122.329 94.616C122.404 93.8832 122.643 93.1322 123.054 92.4419C123.285 92.0552 123.726 91.956 124.153 92.1322C124.774 92.3933 125.161 93.0816 125.019 93.7719C124.841 94.6484 124.325 95.28 123.503 95.6383ZM122.337 80.9842C122.693 81.3789 123.123 81.7089 123.58 82.1239C122.2 82.968 120.859 83.8223 119.323 84.3101C118.926 84.4377 118.493 84.6199 118.157 84.2211C117.896 83.9073 118.143 83.5713 118.246 83.2656C118.853 81.468 119.766 79.8202 120.813 78.1582C121.246 78.64 121.606 79.0408 122.04 79.5226C122.09 79.9497 121.942 80.5489 122.337 80.9842ZM124.364 75.6541C124.353 75.5731 124.353 75.4881 124.345 75.3606C124.414 74.6237 124.655 73.9294 125.339 73.4698C125.789 73.1682 126.272 73.3767 126.376 73.9172C126.55 74.8403 126.177 75.5549 125.481 76.1177C125.032 76.4841 124.445 76.229 124.364 75.6541ZM125.627 71.7188C125.339 71.5406 125.313 71.2512 125.331 70.8989C125.426 70.2451 125.797 69.7086 126.368 69.3098C126.661 69.1034 127.07 69.1196 127.303 69.3098C127.596 69.5528 127.651 69.8787 127.564 70.2167C127.4 70.8544 126.993 71.324 126.453 71.6743C126.2 71.8403 125.906 71.8868 125.627 71.7188ZM124.05 60.3319C124.238 59.5141 124.74 58.9129 125.517 58.5849C126.011 58.3764 126.485 58.6801 126.521 59.2914C126.493 59.3947 126.471 59.6113 126.376 59.7894C126.048 60.3947 125.548 60.8279 124.922 61.1072C124.687 61.2105 124.39 61.2388 124.232 61.0141C124.104 60.8259 124.003 60.5384 124.05 60.3319ZM122.892 64.6417C123.151 63.9454 123.602 63.413 124.281 63.0951C124.831 62.838 125.526 63.2611 125.37 63.9757C125.349 64.0709 125.291 64.2794 125.171 64.4393C124.815 64.915 124.372 65.2915 123.815 65.5243C123.554 65.6336 123.323 65.5952 123.113 65.4292C122.853 65.2207 122.779 64.9434 122.892 64.6417ZM123.54 71.6095C123.675 71.8079 123.793 72.0771 123.781 72.3058C123.732 73.1156 123.542 73.8929 123.015 74.5427C122.823 74.7776 122.59 74.9597 122.254 74.8768C121.928 74.7958 121.77 74.5427 121.702 74.2452C121.635 73.9618 121.519 73.6682 121.552 73.2694C121.592 72.7694 121.821 72.2046 122.07 71.6803C122.418 70.9455 123.078 70.9333 123.54 71.6095ZM122.574 67.2592C122.805 68.1054 122.115 68.8544 121.426 69.1317C121.159 69.241 120.785 69.0527 120.762 68.7612C120.744 68.5203 120.726 68.2288 120.837 68.0365C121.06 67.6479 121.349 67.2936 121.651 66.9576C121.817 66.7734 122.088 66.6559 122.317 66.8381C122.461 66.9555 122.548 67.16 122.574 67.2592ZM121.422 56.8278C121.499 56.7995 121.586 56.8035 121.663 56.7954C121.977 56.8035 122.303 57.178 122.2 57.5222C122.086 57.9169 121.9 58.3056 121.667 58.6436C121.487 58.9129 121.208 59.1254 120.936 59.3177C120.738 59.4615 120.378 59.2853 120.315 59.0606C120.119 58.3643 120.75 57.0849 121.422 56.8278ZM120.074 61.5951C120.236 61.4797 120.448 61.4109 120.651 61.3684C121.048 61.2894 121.455 61.6174 121.392 62.004C121.333 62.3664 121.236 62.7632 121.029 63.0506C120.716 63.4838 120.313 63.8684 119.9 64.2146C119.738 64.3502 119.402 64.4231 119.224 64.3462C119.05 64.2713 118.928 63.9858 118.896 63.8279C118.691 62.8704 119.357 62.1214 120.074 61.5951ZM118.39 66.4859C118.432 66.6013 118.457 66.7288 118.467 66.8219C118.538 67.4353 117.805 68.2734 117.191 68.4475C116.829 68.5507 116.448 68.1884 116.499 67.7632C116.568 67.158 116.809 66.6256 117.268 66.2106C117.665 65.8503 118.201 65.9798 118.39 66.4859ZM117.268 59.3177C117.485 59.3866 117.699 59.5687 117.835 59.757C117.946 59.9149 117.973 60.1538 117.985 60.3603C118.04 61.172 117.706 61.838 117.159 62.4129C116.977 62.6052 116.718 62.7328 116.479 62.585C116.323 62.4919 116.234 62.2733 116.149 62.0931C116.098 61.9838 116.12 61.8421 116.112 61.7449C116.139 60.9878 116.278 60.2914 116.647 59.6538C116.78 59.4189 117.009 59.2347 117.268 59.3177ZM114.42 54.5666C114.523 54.0201 115.118 53.52 115.673 53.5079C115.912 53.5059 116.145 53.7346 116.163 53.9917C116.208 54.6294 115.513 55.2853 114.851 55.2286C114.586 55.2083 114.363 54.8662 114.42 54.5666ZM113.594 63.1984C113.894 63 114.347 63.1397 114.4 63.4737C114.544 64.4069 114.471 65.3037 113.778 66.0365C113.726 66.0912 113.635 66.1559 113.529 66.1418C113.424 66.1276 113.284 66.0223 113.262 65.9333C113.141 65.413 113.001 64.8867 112.969 64.3543C112.938 63.8765 113.181 63.4737 113.594 63.1984ZM112.436 85.5409C112.963 85.5268 113.428 85.3344 113.863 85.0672C114.151 84.8891 114.416 84.6705 114.716 84.5166C114.829 84.4579 115.009 84.5267 115.27 84.545C115.08 84.8466 114.983 85.0875 114.813 85.2555C114.068 85.9984 113.335 86.7677 112.525 87.4398C111.681 88.1402 110.758 88.7455 109.865 89.3851C108.871 90.0937 107.871 90.7941 106.855 91.5107C106.651 91.4338 106.754 91.2495 106.8 91.1159C107.748 88.3892 108.983 85.8 110.503 83.3486C110.57 83.2453 110.673 83.1684 110.776 83.0571C111.147 83.4376 111.4 83.7838 111.321 84.385C111.218 85.1887 111.657 85.5652 112.436 85.5409ZM106.456 81.4032C106.24 80.4295 106.181 79.7351 106.618 79.0955C106.776 78.8647 106.877 78.5509 107.327 78.6238C107.456 79.5934 107.102 80.4153 106.456 81.4032ZM111.467 58.8521C111.616 58.9007 111.752 59.1112 111.78 59.2226C111.977 59.9412 110.989 60.4169 110.363 60.257C110.13 60.1963 110.035 59.9918 110.06 59.7671C110.122 59.1841 110.888 58.6699 111.467 58.8521ZM108.618 56.761C108.722 55.9958 109.09 55.3561 109.673 54.85C109.732 54.7974 109.821 54.7812 109.9 54.7569C110.22 54.6678 110.633 54.9816 110.562 55.3015C110.371 56.1577 109.863 56.7833 109.076 57.176C109.041 57.1942 108.987 57.263 108.875 57.2124C108.732 57.1476 108.596 56.9047 108.618 56.761ZM108.803 67.2389C109.191 67.0588 109.766 67.4191 109.823 67.8786C109.886 68.3645 109.207 69.4293 108.628 69.2451C108.473 69.1944 108.264 69.0123 108.173 68.82C107.918 68.2774 108.258 67.49 108.803 67.2389ZM108.276 81.7676C108.685 80.885 109.252 80.1279 109.993 79.3505C109.845 80.9113 108.655 83.2555 107.402 84.462C107.456 83.4154 107.888 82.5976 108.276 81.7676ZM106.823 52.9026C107.201 52.8318 107.61 53.2407 107.479 53.5848C107.266 54.1456 106.916 54.597 106.359 54.8602C106.288 54.8946 106.189 54.9715 106.037 54.9108C105.898 54.8581 105.746 54.6597 105.715 54.4958C105.59 53.848 106.189 53.02 106.823 52.9026ZM105.001 49.5766C105.13 49.4673 105.416 49.4532 105.588 49.5159C105.752 49.5766 105.922 49.7568 105.975 49.9127C106.159 50.4714 105.774 50.9734 105.381 51.3378C105.086 51.6131 104.588 51.4431 104.491 51.0382C104.345 50.441 104.547 49.9471 105.001 49.5766ZM103.995 74.6439C104.053 74.4031 104.28 74.0488 104.497 73.7006C104.695 73.3808 104.987 73.2876 105.234 73.4051C105.606 73.5832 105.875 73.9759 105.742 74.3039C105.572 74.7189 105.325 75.1096 105.06 75.476C104.914 75.6764 104.655 75.7755 104.387 75.6662C104.13 75.561 104.015 75.3484 103.993 75.0792C103.991 74.9921 103.932 74.9031 103.995 74.6439ZM103.598 54.5646C103.509 55.1719 103.183 55.6618 102.778 56.1011C102.596 56.2995 102.323 56.4229 102.102 56.2569C101.928 56.1274 101.738 55.8966 101.719 55.6213C101.687 55.1314 102.053 54.7306 102.258 54.3237C102.398 54.0504 102.665 53.9087 102.993 53.9107C103.357 53.9107 103.649 54.2124 103.598 54.5646ZM101.75 67.2025C101.756 67.4778 101.671 67.6398 101.618 67.7956C101.523 68.079 101.132 68.1944 100.885 68.0224C100.278 67.6013 99.8064 66.3988 99.9602 65.664C100.013 65.4231 100.288 65.2551 100.539 65.3098C100.928 65.3948 101.27 65.5851 101.41 65.9636C101.568 66.3907 101.742 66.832 101.75 67.2025ZM101.379 46.277C101.638 45.8822 102.136 45.8539 102.442 46.2244C102.572 46.3802 102.683 46.5685 102.75 46.7588C103.029 47.5462 102.962 48.3297 102.655 49.0908C102.474 49.5341 102.153 49.773 101.823 49.7366C101.428 49.692 101.25 49.4026 101.161 49.0685C101.057 48.6657 100.983 48.2568 100.968 48.0746C100.904 47.2831 101.07 46.7466 101.379 46.277ZM100.238 50.4835C100.402 50.0544 100.938 49.9714 101.288 50.269C102.134 50.9937 102.153 52.5382 101.321 53.3055C100.978 53.6233 100.442 53.5727 100.262 53.1516C100.082 52.7387 99.8914 52.2994 99.8873 51.85C99.8772 51.35 100.076 50.9066 100.238 50.4835ZM99.8954 59.3096C100.051 58.9979 100.302 58.838 100.58 58.8805C100.839 58.923 101.013 59.1578 101.047 59.5343C101.057 59.6558 101.049 59.7833 101.049 60.1295C101.007 60.2752 100.93 60.6416 100.792 60.9838C100.673 61.2692 100.317 61.4251 100.068 61.338C99.8064 61.2489 99.6809 61.0364 99.6647 60.7672C99.6363 60.2651 99.6626 59.7712 99.8954 59.3096ZM97.8914 45.9571C97.9784 45.6494 98.3428 45.532 98.5999 45.696C99.3408 46.1717 99.525 47.7426 98.9197 48.4046C98.7193 48.6232 98.3266 48.6131 98.1485 48.3722C98.0513 48.2406 97.9501 48.0928 97.9177 47.9349C97.8387 47.5665 97.7213 47.1981 97.7335 46.7669C97.7355 46.5199 97.8124 46.2345 97.8914 45.9571ZM63.6781 89.3588C63.3077 89.8932 62.7793 90.0754 62.2914 90.0916C61.7732 90.0977 61.4007 90.0491 61.1963 89.6584C61.0647 89.4054 61.2853 89.0471 61.7509 88.7839C62.2287 88.5147 62.7348 88.3203 63.3036 88.4236C63.7996 88.5106 63.9615 88.9479 63.6781 89.3588ZM63.6963 97.3873C63.6639 97.5655 63.5263 97.8347 63.3522 98.0513C63.0526 98.4197 62.5485 98.4319 62.2469 98.0797C61.6437 97.3792 61.3724 96.5493 61.3987 95.6282C61.4088 95.3144 61.5728 95.0614 61.8805 94.944C62.1902 94.8225 62.4696 94.9237 62.7004 95.1282C63.3319 95.695 63.8745 96.446 63.6963 97.3873ZM63.0222 83.6583C62.5728 83.3709 62.1578 83.0024 61.8056 82.6036C61.4939 82.2494 61.7186 81.7595 62.1882 81.636C62.3502 81.5955 62.5161 81.5773 62.6113 81.5611C63.1983 81.6016 63.6761 81.717 64.0587 82.0955C64.4534 82.4842 64.5223 82.9437 64.2409 83.3364C63.9555 83.7292 63.4291 83.9194 63.0222 83.6583ZM61.753 85.4519C62.0222 85.7515 61.9169 86.2191 61.5546 86.4094C60.7509 86.8325 59.7833 86.6361 59.174 85.9256C58.84 85.5349 58.9837 84.9579 59.4695 84.8142C59.7084 84.7454 59.9635 84.7433 60.0546 84.7332C60.844 84.7231 61.3461 84.9984 61.753 85.4519ZM60.6112 81.3121C60.3987 81.6805 60.0667 81.8384 59.6618 81.7878C59.0039 81.7028 58.4938 81.3404 58.0727 80.8546C57.7731 80.5105 57.7286 80.0955 57.9189 79.8121C58.0889 79.559 58.4209 79.4173 58.8865 79.4497C59.4533 79.5266 60.01 79.7939 60.4574 80.2676C60.7428 80.5692 60.7955 80.9862 60.6112 81.3121ZM58.8602 82.8223C59.1598 83.1785 59.1477 83.6178 58.8157 83.9478C58.4351 84.3223 57.9756 84.4721 57.4411 84.3648C56.848 84.2454 56.346 83.9559 55.929 83.5287C55.516 83.1057 55.6415 82.5166 56.1962 82.3182C56.5059 82.2089 56.8419 82.1542 57.1719 82.1259C57.8339 82.0652 58.4189 82.2959 58.8602 82.8223ZM57.9189 86.9802C58.4634 86.8851 58.923 87.041 59.2732 87.4742C59.4371 87.6786 59.512 87.9155 59.3845 88.1807C59.263 88.4398 59.0505 88.5491 58.7813 88.5673C58.6962 88.5734 58.6072 88.622 58.3723 88.5673C58.1841 88.5248 57.8905 88.3588 57.6071 88.1867C57.3764 88.0471 57.2711 87.8143 57.3055 87.5369C57.3399 87.2657 57.593 87.0369 57.9189 86.9802ZM60.8461 99.3165C60.8299 99.5311 60.757 99.7801 60.6477 99.9987C60.2671 100.768 59.3116 100.885 58.7772 100.215C58.1476 99.4279 57.9553 98.4744 57.9047 97.5027C57.8865 97.1039 58.1274 96.7881 58.4776 96.5816C58.7165 96.442 58.9695 96.4015 59.1922 96.5614C60.1315 97.2234 60.9473 98.108 60.8461 99.3165ZM58.346 101.946C58.4432 101.626 58.7064 101.505 59.012 101.468C59.178 101.45 59.346 101.45 59.4979 101.442C60.4533 101.551 61.2955 101.898 62.0202 102.501C62.251 102.691 62.419 102.95 62.2793 103.272C62.1518 103.574 61.8886 103.721 61.5789 103.711C61.2509 103.701 60.9169 103.64 60.5951 103.574C59.8865 103.43 59.2549 103.102 58.6638 102.701C58.4108 102.525 58.2488 102.278 58.346 101.946ZM59.6477 106.064C60.4776 105.709 61.2995 105.831 62.1093 106.124C62.4574 106.248 62.672 106.622 62.6113 106.918C62.5425 107.248 62.2935 107.408 61.9918 107.477C61.7874 107.521 61.5789 107.604 61.2064 107.574C60.7671 107.541 60.2064 107.331 59.6618 107.122C59.4634 107.047 59.2489 106.803 59.2023 106.596C59.1396 106.327 59.4068 106.167 59.6477 106.064ZM62.2368 100.306C62.1315 99.9258 62.2307 99.608 62.5141 99.4096C62.7874 99.2194 63.0668 99.2477 63.3522 99.3813C64.0769 99.7234 64.6478 100.659 64.67 101.545C64.6802 101.968 64.5304 102.203 64.1842 102.337C63.8502 102.464 63.6052 102.308 63.3967 102.092C62.8947 101.572 62.4331 101.023 62.2368 100.306ZM63.1093 104.199C63.3664 104.076 63.6518 103.956 63.9575 103.946C64.3866 103.932 64.8036 104.084 65.1842 104.24C65.4373 104.343 65.6701 104.576 65.832 104.809C66.0972 105.189 65.8522 105.695 65.3947 105.782C64.5 105.956 63.7307 105.6 63.004 105.155C62.668 104.948 62.7348 104.383 63.1093 104.199ZM65.7935 95.7638C65.8522 95.4723 65.9818 95.1788 66.3178 95.116C66.6923 95.0472 66.9677 95.2517 67.1579 95.5533C67.6418 96.3225 67.9353 97.1788 67.8928 98.1586C67.8827 98.4116 67.83 98.7517 67.7308 99.0675C67.5466 99.6708 66.8502 99.8246 66.4433 99.359C66.2531 99.1404 66.0607 98.8934 65.9656 98.6262C65.6316 97.695 65.6093 96.7294 65.7935 95.7638ZM64.4291 85.2677C64.3866 85.0369 64.5931 84.7494 64.8279 84.713C65.5122 84.6037 66.5446 85.2332 66.7288 85.8729C66.7389 85.9134 66.7389 85.9539 66.745 85.9964C66.7774 86.3527 66.3887 86.7393 66.0284 86.7029C65.4312 86.6462 64.5344 85.8405 64.4291 85.2677ZM66.2693 82.1502C65.9595 81.9437 65.6761 81.6866 65.413 81.4234C65.0567 81.0672 64.9818 80.7412 65.1822 80.5509C65.4757 80.2716 65.8239 80.3546 66.1114 80.5186C66.5081 80.7433 66.8725 81.0287 67.2268 81.3202C67.3381 81.4133 67.4434 81.5894 67.4312 81.7453C67.417 81.9113 67.2875 82.0044 67.1984 82.0813C66.913 82.3324 66.5709 82.3526 66.2693 82.1502ZM70.2916 68.4718C70.3118 68.1965 70.5366 67.9515 70.8645 67.8989C71.5609 67.7875 72.1844 67.9576 72.7127 68.4313C72.903 68.6033 72.8564 68.9657 72.6074 69.0629C72.2269 69.2167 71.824 69.3159 71.488 69.4191C71.1681 69.3341 70.907 69.3078 70.6924 69.1944C70.4272 69.0527 70.2714 68.7997 70.2916 68.4718ZM70.4657 75.9314C70.4556 76.0124 70.4374 76.0974 70.4131 76.1743C70.3119 76.4841 69.9961 76.725 69.662 76.7513C69.3361 76.7756 68.994 76.5812 68.9029 76.231C68.7794 75.7533 68.6539 75.2614 68.6418 74.7958C68.6317 74.4233 68.6964 74.0893 68.7713 73.7674C68.8644 73.3686 69.3179 73.2006 69.6661 73.4253C69.8017 73.5144 69.9495 73.6257 70.0203 73.7634C70.3766 74.4395 70.5528 75.1622 70.4657 75.9314ZM72.4172 65.5628C72.2775 65.8583 72.0123 65.9778 71.7005 66.0041C71.5305 66.0183 71.3625 66.0243 71.1843 66.0365C70.9434 65.992 70.6864 65.9697 70.4495 65.8907C69.8948 65.7065 69.6195 65.1336 69.7572 64.5709C69.8523 64.1842 70.5102 63.8219 71.0183 64.081C71.3908 64.2713 71.7896 64.4231 72.1338 64.6579C72.4313 64.8583 72.5366 65.3138 72.4172 65.5628ZM70.6944 62.3988C70.6357 62.7328 70.3989 62.8927 70.0871 62.9595C69.8807 63.004 69.6742 63.0951 69.407 63.081C69.1134 63.0648 68.7835 62.9453 68.4839 62.8036C68.0102 62.5789 67.828 61.9635 68.0446 61.4939C68.241 61.0688 68.7329 60.8643 69.2207 61.0566C69.6114 61.2105 69.992 61.4028 70.3442 61.6336C70.5953 61.7996 70.7511 62.0708 70.6944 62.3988ZM68.8867 65.7996C69.33 66.1944 69.1641 66.8118 68.5993 66.9636C68.3604 67.0264 68.1074 67.1418 67.7187 67.0851C67.4252 67.0446 67.0446 66.8523 66.7106 66.6337C66.3725 66.411 66.3826 65.9312 66.6701 65.6438C67.0183 65.3017 67.4474 65.1073 67.9211 65.2551C68.2693 65.3664 68.6155 65.5587 68.8867 65.7996ZM67.1519 78.9963C67.0243 78.7027 67.2409 78.3748 67.5608 78.3768C68.2167 78.3788 68.66 78.7392 69.0001 79.2574C69.0628 79.3526 69.0547 79.4963 69.0689 79.5611C69.0426 80.0793 68.5304 80.3647 68.1397 80.1157C67.7106 79.8404 67.3644 79.472 67.1519 78.9963ZM68.4069 84.2838C68.8989 84.4336 69.3665 84.7555 69.5912 85.3608C69.7106 85.6867 69.4454 86.0673 69.0973 86.0875C68.5122 86.1199 67.7612 85.4255 67.7248 84.8263C67.7086 84.5409 68.0183 84.2454 68.4069 84.2838ZM69.9212 82.5611C70.5264 82.3627 71.6823 83.0004 71.8443 83.6259C71.8544 83.6664 71.8524 83.7109 71.8544 83.7494C71.8726 84.1563 71.3766 84.551 70.988 84.3992C70.3847 84.1664 69.9191 83.7535 69.6357 83.1644C69.5325 82.9498 69.6884 82.638 69.9212 82.5611ZM71.6054 80.1137C71.1985 79.7311 71.0102 79.223 70.992 78.891C70.9657 78.225 71.3301 77.9598 71.7289 78.142C72.4212 78.4558 72.8423 78.9983 72.9637 79.7493C73.0224 80.1218 72.6419 80.4922 72.2572 80.4153C72.0285 80.3728 71.7734 80.2736 71.6054 80.1137ZM72.6297 75.0772C72.6115 75.0063 72.654 74.9152 72.6742 74.8342C72.8018 74.3707 73.3058 74.2269 73.6601 74.561C74.1763 75.0508 74.3565 75.6845 74.405 76.3221C74.4071 76.7715 74.2148 77.0792 73.9131 77.1501C73.5872 77.229 73.1965 77.0995 73.073 76.7594C72.8787 76.2169 72.7633 75.6419 72.6297 75.0772ZM76.7674 62.2793C76.5954 61.587 77.067 61.1295 77.7614 61.3036C78.5732 61.5081 79.4335 62.6012 79.4355 63.4413C79.4375 63.9535 78.9922 64.2895 78.4942 64.1073C77.6197 63.7895 76.9982 63.2105 76.7674 62.2793ZM77.6015 76.9719C77.5995 77.0144 77.5954 77.057 77.5913 77.0954C77.5549 77.5043 77.3464 77.7979 77.0549 77.8444C76.6683 77.9051 76.2148 77.5752 76.2006 77.1278C76.1865 76.7715 76.2776 76.393 76.401 76.0549C76.5124 75.7452 77.0124 75.7108 77.2533 75.9456C77.5407 76.233 77.6096 76.5893 77.6015 76.9719ZM77.31 66.662C77.5529 67.1944 77.1743 67.7126 76.5873 67.6458C75.8545 67.5608 75.2128 67.2754 74.7654 66.6539C74.3767 66.1154 74.6298 65.5507 75.2937 65.4636C75.3788 65.4535 75.4638 65.4535 75.5974 65.4474C76.3788 65.5021 76.9699 65.911 77.31 66.662ZM75.7492 72.8787C75.8383 73.1358 75.6783 73.4678 75.4638 73.4901C75.4213 73.4921 75.3788 73.5103 75.3423 73.5002C74.5245 73.2937 73.8585 72.8848 73.5791 72.0488C73.5245 71.8909 73.6034 71.6054 73.7249 71.49C73.8443 71.3787 74.1338 71.3281 74.2876 71.3949C74.9698 71.6844 75.4941 72.1581 75.7492 72.8787ZM74.3403 90.5066C74.8241 90.6949 75.0731 91.1281 75.3484 91.5228C75.563 91.8265 75.7431 92.2799 75.9516 93.0451C75.1763 93.0532 74.1783 92.2253 73.4071 92.0451C73.7249 91.5228 74.0103 91.0512 74.3403 90.5066ZM75.5731 80.9113C75.1581 80.9781 74.6986 80.7271 74.5488 80.3384C74.3747 79.8748 74.4435 79.4214 74.6642 78.9942C74.8423 78.6521 75.3302 78.5853 75.6601 78.8201C76.0407 79.0934 76.1601 79.4821 76.1682 79.9234C76.1601 80.0084 76.1581 80.0935 76.148 80.1744C76.0954 80.5874 75.8828 80.8566 75.5731 80.9113ZM76.4982 89.8143C76.7513 89.8932 77.0185 90.0026 77.2978 90.0572C77.5367 90.1058 77.7837 90.0916 78.0063 90.1058C78.3707 91.1564 78.6238 92.203 78.7047 92.9439C78.729 93.1706 78.4598 93.3083 78.2918 93.1544C77.6743 92.5998 76.5832 91.5208 76.1581 90.7556C75.9456 90.3771 75.9942 90.288 76.4982 89.8143ZM78.4821 82.051C78.1399 82.2494 77.6642 81.9882 77.6258 81.5915C77.5914 81.2655 77.5853 80.9012 77.7007 80.6056C77.9618 79.9376 78.3748 79.3424 78.9274 78.8728C79.0671 78.7533 79.3242 78.6744 79.4962 78.7108C79.7574 78.7695 79.8667 79.0246 79.8789 79.2979C79.8789 79.3404 79.8809 79.3829 79.8869 79.4862C79.8728 80.1137 79.7169 80.7716 79.3242 81.3324C79.1157 81.6239 78.7958 81.8668 78.4821 82.051ZM79.2756 84.6846C79.7088 84.132 80.1967 83.6158 80.6906 83.1158C80.7716 83.0308 81.0266 83.0186 81.1339 83.0814C81.2493 83.1482 81.3688 83.3729 81.3404 83.4883C81.1056 84.3972 80.6137 85.1543 79.8465 85.713C79.7857 85.7575 79.6805 85.8324 79.5165 85.7758C79.3809 85.7312 79.2068 85.549 79.1784 85.3871C79.1339 85.1624 79.146 84.8486 79.2756 84.6846ZM81.2493 91.6241C82.4153 93.3144 83.1988 93.3164 84.3688 91.616C85.6664 94.3954 86.8183 97.1586 87.211 100.355C84.1886 97.8772 81.7736 95.1423 80.2594 91.5653C80.6137 91.5856 80.8991 91.6018 81.2493 91.6241ZM85.0024 68.8341C84.7899 68.239 84.6907 67.6195 84.7433 66.9859C84.804 66.2693 85.1462 65.7227 85.7555 65.3482C86.0652 65.1579 86.4458 65.328 86.5409 65.6843C86.5652 65.7652 86.5895 65.8482 86.5915 65.9292C86.5996 66.1377 86.377 68.2066 86.2292 69.0285C86.2049 69.1479 86.1583 69.2673 86.1057 69.3807C85.9701 69.656 85.5551 69.7228 85.3688 69.4758C85.219 69.2835 85.0854 69.0629 85.0024 68.8341ZM85.1664 82.5652C85.1684 83.1077 84.3364 83.8709 83.7656 83.8081C83.7129 83.7332 83.5854 83.6421 83.5814 83.5429C83.553 83.0065 84.1482 82.3263 84.719 82.2129C84.8951 82.1765 85.1664 82.3911 85.1664 82.5652ZM85.4316 61.0303C85.2251 61.4615 84.7231 61.4514 84.3627 61.1174C83.6886 60.4878 83.7939 59.0121 84.2514 58.5343C84.3789 58.3987 84.6158 58.3076 84.804 58.3076C85.4458 58.3096 85.8749 58.7975 85.881 59.7206C85.7858 60.006 85.6644 60.5465 85.4316 61.0303ZM84.2615 63.7935C84.2453 64.2247 84.1745 64.5506 83.8526 64.6235C83.6401 64.6741 83.3425 64.6053 83.1542 64.4798C82.5469 64.0749 82.1036 63.5101 81.8323 62.832C81.7433 62.6052 81.7007 62.3421 81.7048 62.0971C81.7129 61.5789 82.1643 61.257 82.6623 61.3967C82.8182 61.4413 82.9842 61.5101 83.1056 61.6133C83.8101 62.2186 84.1785 62.9939 84.2615 63.7935ZM86.6907 91.6909C87.2332 91.9824 87.8709 92.5471 87.9701 92.8548C88.0895 93.2253 88.045 93.5877 87.6867 94.0775C87.2778 93.2354 86.964 92.5188 86.6907 91.6909ZM86.3021 56.5768C86.2272 56.5586 86.0936 56.5525 85.9883 56.4958C85.385 56.1658 84.8992 55.7083 84.6178 55.0707C84.3263 54.4128 84.8081 53.7731 85.5308 53.8298C86.377 53.8966 87.2778 54.8885 87.2555 55.7266C87.2393 56.2164 86.8304 56.6051 86.3021 56.5768ZM87.2575 60.3258C87.4235 59.8845 87.8993 59.7975 88.3041 60.0505C88.7717 60.342 89.0632 60.7813 88.9438 61.3076C88.7859 61.9919 88.545 62.666 88.2474 63.3016C88.0389 63.749 87.4417 63.7045 87.2717 63.2429C87.0996 62.7834 86.9195 62.2996 86.9174 61.7955C86.9154 61.2753 87.0875 60.7833 87.2575 60.3258ZM89.7151 55.8339C88.956 55.599 88.3912 55.1253 88.0855 54.3804C87.9235 53.9816 88.0227 53.5747 88.3041 53.346C88.6341 53.0787 89.0005 53.0808 89.3649 53.2589C89.9843 53.5585 90.5835 54.5363 90.5673 55.2002C90.5592 55.678 90.1786 55.9776 89.7151 55.8339ZM90.622 57.5262C90.7272 57.9756 90.5025 58.3987 90.0693 58.508C89.4033 58.678 88.8203 58.4898 88.3406 58.0161C87.9782 57.6618 88.0389 57.0869 88.4721 56.8318C88.7151 56.6861 89.0066 56.6233 89.1361 56.5748C89.9459 56.5768 90.4904 56.9675 90.622 57.5262ZM88.4964 64.6944C88.709 64.2956 89.0653 64.1397 89.4297 64.2632C89.7495 64.3745 89.9013 64.6458 89.8608 65.3442C89.7556 65.6924 89.5835 66.2956 89.379 66.8867C89.294 67.1276 89.122 67.326 88.8365 67.3462C88.6098 67.3645 88.3608 67.1114 88.2555 66.7653C88.0389 66.0405 88.1503 65.3502 88.4964 64.6944ZM90.8366 72.4516C91.1827 72.316 91.4904 72.0872 91.8123 71.901C92.1058 71.9556 92.0694 72.2006 92.0795 72.3929C92.1665 73.737 92.2516 75.0792 92.3184 76.4233C92.3325 76.6966 92.4297 77.0023 92.1807 77.2432C91.3001 76.5893 90.0248 74.2108 89.7495 72.6925C90.1118 72.6156 90.4924 72.5832 90.8366 72.4516ZM92.0309 61.3684C91.786 61.3158 91.4297 61.091 91.0977 60.8684C90.8851 60.7246 90.7839 60.4453 90.9155 60.2044C91.0046 60.0424 91.1928 59.8845 91.371 59.8319C91.9682 59.6538 92.4783 59.8825 92.8649 60.4372C93.1443 60.8441 92.9439 61.2915 92.456 61.3421C92.373 61.3502 92.286 61.421 92.0309 61.3684ZM91.3973 56.1416C91.1989 55.6638 91.5552 55.1841 92.1827 55.182C92.3103 55.2245 92.5694 55.263 92.7759 55.3885C93.6423 55.9067 94.1585 56.7063 94.4662 57.6477C94.5148 57.7914 94.4763 57.9776 94.4338 58.1315C94.3548 58.4189 93.9844 58.6254 93.7354 58.4938C92.7111 57.9594 91.8487 57.2428 91.3973 56.1416ZM94.2091 53.7711C94.0775 53.3844 94.0613 52.9512 94.0431 52.5362C94.0289 52.2285 94.1625 51.9431 94.4804 51.8338C94.8245 51.7143 95.1565 51.7852 95.4217 52.0342C95.865 52.4573 96.2132 52.9735 96.1525 53.6678C96.1423 53.765 96.1099 53.933 96.0593 54.0909C95.9642 54.4006 95.7071 54.5666 95.3913 54.5626C94.8225 54.5524 94.3872 54.2913 94.2091 53.7711ZM96.1808 59.508C96.7658 59.7307 97.1667 60.3562 97.0978 60.9858C97.0837 61.1174 96.9399 61.2692 96.8124 61.3481C96.7355 61.3967 96.5593 61.3583 96.4682 61.2955C96.0047 60.9757 95.699 60.5344 95.6423 59.9675C95.6261 59.8036 95.7132 59.5647 95.8427 59.4857C95.9966 59.3947 96.1099 59.4797 96.1808 59.508ZM94.6868 72.7876C94.7152 72.4172 94.8346 72.0548 94.9298 71.6075C95.2577 71.8423 95.5249 72.0366 95.7658 72.2087C95.9217 72.897 96.0674 73.5447 96.2557 74.3727C95.9946 75.0751 95.782 75.9638 96.2031 76.8849C96.5917 77.7311 97.2051 78.3384 98.0857 78.725C98.3306 81.5591 98.4055 84.379 98.1667 87.2009C98.1484 87.4418 98.1991 87.7171 97.8752 87.9195C97.778 87.8305 97.6241 87.7495 97.5573 87.624C97.2638 87.0653 96.9602 86.5086 96.7172 85.9256C95.8974 83.9721 95.3427 81.9295 94.9277 79.8586C94.4621 77.5226 94.4905 75.1541 94.6868 72.7876ZM97.6221 57.346C96.9298 56.8744 96.5796 55.514 96.9642 54.7488C97.1282 54.4209 97.4136 54.2549 97.7679 54.2326C98.1302 54.2083 98.448 54.352 98.5958 54.684C98.7456 55.0201 98.8529 55.3824 98.8792 55.5727C98.9724 56.265 98.7659 56.757 98.4804 57.1902C98.2598 57.5262 97.9663 57.5788 97.6221 57.346ZM97.2355 49.1212C98.3549 49.5017 98.7396 50.8317 98.0067 51.7811C97.7335 52.1354 97.2395 52.1637 96.9136 51.8257C96.4581 51.352 96.1828 50.7609 96.1889 50.0989C96.1909 49.9552 96.2334 49.7912 96.2759 49.6313C96.4075 49.1536 96.7699 48.9633 97.2355 49.1212ZM94.6585 45.1838C94.703 44.9591 94.865 44.6575 95.037 44.3741C95.2172 44.0745 95.6524 44.0361 95.9278 44.2506C96.5897 44.7689 97.0209 46.1049 96.7739 46.8843C96.6808 47.1758 96.5391 47.4389 96.2233 47.53C95.8448 47.6394 95.5694 47.4329 95.3447 47.1657C94.8913 46.6312 94.5026 45.9835 94.6585 45.1838ZM92.8204 47.4855C93.1119 47.3539 93.4054 47.4167 93.6524 47.609C94.4885 48.2467 94.7941 49.1434 94.8609 50.1455C94.8812 50.4653 94.697 50.7123 94.4136 50.856C94.12 51.0099 93.8265 50.9329 93.5876 50.7325C92.8467 50.0969 92.4196 49.273 92.3548 48.443C92.3204 47.9552 92.4742 47.6414 92.8204 47.4855ZM92.7637 52.1354C92.8751 52.5524 92.5127 52.9836 92.0674 52.9917C91.8265 52.9978 91.5673 52.9472 91.3426 52.854C90.4803 52.4978 89.9216 51.8358 89.628 50.9653C89.3952 50.269 89.9357 49.3438 90.6706 49.5038C90.8102 49.5362 91.0532 49.6232 91.2556 49.7568C92.1078 50.3256 92.5147 51.1921 92.7637 52.1354ZM88.9175 44.6049C89.1604 44.6474 89.4033 44.7365 89.628 44.8458C90.4479 45.2365 91.3042 46.6049 91.3123 47.5017C91.3143 47.9734 90.873 48.3195 90.456 48.1252C89.4438 47.6515 88.5491 47.0402 88.2515 45.864C88.1989 45.6636 88.1503 45.4551 88.1503 45.2486C88.1543 44.8498 88.5248 44.534 88.9175 44.6049ZM87.9782 47.4106C88.1098 47.447 88.3648 47.5462 88.5106 47.7183C88.7171 47.9632 88.8811 48.2709 88.9843 48.5786C89.1665 49.1252 88.711 49.5625 88.1361 49.4228C87.6624 49.3074 87.3304 49.0078 87.1017 48.5908C86.7778 47.9916 87.1968 47.2041 87.9782 47.4106ZM86.2859 50.2507C86.9843 50.4431 87.46 50.9066 87.713 51.5807C87.9438 52.188 87.5895 52.6779 86.8345 52.7042C86.3162 52.6779 85.7616 52.5059 85.3 52.0909C84.9215 51.7488 84.8061 51.2285 84.9964 50.8277C85.2089 50.3823 85.7777 50.1131 86.2859 50.2507ZM83.5874 46.9936C83.8809 46.7183 84.2332 46.6333 84.6259 46.779C85.2919 47.0219 85.8365 47.7912 85.8547 48.5159C85.8628 48.9572 85.5247 49.3175 85.0834 49.3337C84.3142 49.36 83.5145 48.773 83.2959 48.0159C83.1805 47.6171 83.2939 47.2669 83.5874 46.9936ZM81.4335 51.4572C81.5186 50.9289 81.9194 50.5422 82.4437 50.4815C82.9194 50.4269 83.2838 50.6637 83.4943 51.2062C83.5996 51.4795 83.6745 51.765 83.6988 51.9431C83.719 52.101 83.6988 52.1435 83.6988 52.186C83.7069 52.7731 83.5409 53.1273 83.1866 53.2407C82.7311 53.3864 82.3647 53.2063 82.0368 52.9047C81.6117 52.518 81.3323 52.0645 81.4335 51.4572ZM81.2392 54.429C81.4902 54.5605 81.7392 54.7468 81.9133 54.9674C82.3688 55.5464 82.5064 56.2529 82.6097 56.8683C82.6198 57.3521 82.4315 57.6861 82.1461 57.7772C81.8343 57.8784 81.5489 57.7853 81.3364 57.5626C80.64 56.8318 80.2837 55.9553 80.3282 54.9391C80.3505 54.4634 80.806 54.2063 81.2392 54.429ZM79.1764 58.6618C79.2392 58.3764 79.5671 58.1456 79.8424 58.2448C80.0671 58.3238 80.3364 58.4493 80.4477 58.6355C80.8222 59.2671 80.9598 59.9554 80.6926 60.6801C80.5529 61.0587 80.1683 61.1376 79.9011 60.8461C79.4456 60.3441 79.1359 59.6194 79.1319 58.9918C79.146 58.9108 79.1501 58.7853 79.1764 58.6618ZM77.4557 52.8864C77.9537 52.8338 78.391 52.9836 78.6035 53.4553C78.8221 53.9411 79.0469 54.4472 79.0813 54.8257C79.1096 55.1274 79.0266 55.2508 79.0023 55.3723C78.9355 55.682 78.642 55.8723 78.3525 55.7974C77.482 55.5747 76.7108 54.5342 76.7492 53.6375C76.7654 53.2447 77.0509 52.9289 77.4557 52.8864ZM75.901 56.1294C75.982 55.9715 76.1763 55.7873 76.3849 55.767C76.6359 55.7407 76.8363 55.9108 76.9881 56.0363C77.6845 56.6213 78.1602 57.3561 78.3687 58.2469C78.4375 58.5404 78.4294 58.8825 78.1258 59.0303C77.9254 59.1315 77.6055 59.1679 77.4152 59.0748C76.4901 58.6315 75.8626 57.9189 75.7634 56.8561C75.7391 56.6193 75.7917 56.3399 75.901 56.1294ZM76.0751 59.8299C76.0731 60.5121 75.5022 60.9271 74.8666 60.6578C73.9658 60.2773 73.3402 59.6214 73.15 58.6315C73.0143 57.9311 73.4799 57.4574 74.1581 57.5728C75.063 57.7286 76.0771 58.925 76.0751 59.8299ZM72.9921 53.5848C73.2714 53.431 73.5629 53.4836 73.8241 53.6597C74.5123 54.1192 74.7411 54.8176 74.8322 55.5444C74.7998 55.7185 74.7876 55.846 74.7573 55.9654C74.6966 56.2185 74.4374 56.4209 74.1945 56.3399C73.8848 56.2367 73.5548 56.1152 73.3139 55.9067C72.8544 55.5039 72.6662 54.9371 72.6257 54.3358C72.6074 54.0322 72.7087 53.7407 72.9921 53.5848ZM73.4921 60.8178C74.4759 61.1396 75.2856 61.7307 75.7452 62.6842C76.0286 63.2652 75.6601 63.7834 74.9577 63.8057C74.0973 63.7632 73.2998 63.4413 72.652 62.7895C72.2997 62.4372 72.1925 61.998 72.3342 61.5182C72.484 60.9979 72.984 60.6518 73.4921 60.8178ZM70.3422 55.6092C70.4131 55.6294 70.5811 55.6598 70.7289 55.7245C71.5933 56.1193 72.075 56.8238 72.3099 57.7124C72.3989 58.0546 72.3382 58.3784 72.0244 58.6072C71.7248 58.8238 71.4111 58.8724 71.0831 58.7003C70.2187 58.2509 69.6479 57.5586 69.4252 56.6092C69.2956 56.0505 69.6924 55.595 70.3422 55.6092ZM66.5709 57.2489C67.8928 57.0788 68.9292 57.7428 69.3078 58.6295C69.4556 58.9817 69.3442 59.3785 69.0649 59.5161C68.9879 59.5526 68.909 59.5849 68.826 59.5971C68.66 59.6234 68.49 59.6315 68.4231 59.6396C67.7126 59.6234 67.1559 59.4432 66.6539 59.1032C66.332 58.8866 66.0952 58.593 65.9899 58.2084C65.8725 57.7671 66.1356 57.3055 66.5709 57.2489ZM64.587 60.4999C64.8603 60.3279 65.1802 60.1619 65.4737 60.1558C65.8826 60.1477 66.2004 60.3461 66.4919 60.502C67.0446 60.7975 67.0648 61.4939 66.5547 61.8542C66.0871 62.1842 65.5547 62.2793 64.9919 62.2024C64.585 62.1478 64.2692 61.8664 64.1963 61.4959C64.1133 61.085 64.2429 60.7206 64.587 60.4999ZM64.5364 65.0709C64.0648 64.8927 63.834 64.5608 63.8603 64.1194C63.8886 63.6377 64.2409 63.2551 64.7348 63.1842C64.8563 63.168 64.9858 63.1822 65.2024 63.1822C65.5972 63.2368 65.9899 63.4615 66.2814 63.8502C66.6174 64.2996 66.4352 64.9029 65.9008 65.0871C65.4494 65.243 64.9899 65.243 64.5364 65.0709ZM64.2368 72.4638C64.4899 72.2492 64.8563 72.2147 65.1781 72.4152C65.8057 72.8018 66.2895 73.314 66.5446 74.0184C66.5891 74.1338 66.6114 74.2593 66.6255 74.3282C66.6438 74.7938 66.2186 75.2148 65.8138 75.1683C65.6518 75.148 65.4717 75.1055 65.3401 75.0124C64.7449 74.5954 64.2712 74.063 64.002 73.3787C63.8664 73.0346 63.9696 72.6885 64.2368 72.4638ZM64.083 76.0549C64.7814 76.0893 65.6478 76.814 65.8037 77.4962C65.9089 77.9517 65.5101 78.4274 65.0344 78.4193C64.9534 78.4052 64.8623 78.4112 64.7915 78.3768C64.0749 78.0205 63.668 77.4092 63.4514 76.6683C63.3623 76.3707 63.7368 76.0387 64.083 76.0549ZM63.0243 78.6238C63.4676 79.144 63.2085 79.8607 62.5323 79.9679C62.2975 80.0044 62.0141 79.9882 61.7995 79.8971C61.2469 79.6562 60.8096 79.2594 60.5141 78.725C60.2833 78.3039 60.5202 77.8545 60.9979 77.7918C61.0809 77.7817 61.1639 77.7756 61.2327 77.7715C61.9514 77.8262 62.5627 78.0833 63.0243 78.6238ZM60.7104 73.5245C60.7692 73.5346 60.9513 73.5265 61.0971 73.5994C61.8339 73.9638 62.4433 74.4618 62.7287 75.2735C62.834 75.5772 62.7975 75.8525 62.6437 76.1258C62.4595 76.4557 62.1072 76.5974 61.7874 76.4132C60.9574 75.9456 60.3218 75.2796 59.9574 74.3929C59.7853 73.9739 60.1315 73.5407 60.7104 73.5245ZM56.8156 76.2695C56.9695 76.2108 57.1294 76.1663 57.2326 76.1561C57.9918 76.0691 58.595 76.4395 59.0869 76.9335C59.3562 77.2068 59.4311 77.5711 59.2772 77.8464C59.0991 78.1643 58.8116 78.3242 58.4594 78.3465C57.8642 78.3809 56.7124 77.5752 56.4857 76.9841C56.3824 76.7088 56.5282 76.3788 56.8156 76.2695ZM54.0099 78.8748C54.2144 78.8343 54.4249 78.8323 54.4532 78.8303C55.1557 78.8546 55.6294 79.0044 56.018 79.3667C56.3379 79.6623 56.4593 80.0671 56.3217 80.385C56.1476 80.7797 55.8136 80.9315 55.4128 80.9477C55.2468 80.9558 55.0484 80.9578 54.9208 80.8769C54.4694 80.5813 53.9957 80.2918 53.6151 79.9173C53.2326 79.5347 53.4674 78.9821 54.0099 78.8748ZM51.6617 81.7453C51.9572 81.6056 52.2588 81.383 52.6556 81.3931C53.0989 81.4032 53.5018 81.6947 53.8986 81.9093C54.2164 82.0793 54.3318 82.4154 54.2771 82.7737C54.2184 83.1482 53.9593 83.3526 53.6151 83.4498C52.8661 83.6644 51.8135 83.2069 51.4572 82.5206C51.3256 82.2676 51.4046 81.8708 51.6617 81.7453ZM51.7507 87.7879C51.103 87.7434 50.6799 87.3588 50.3519 86.8446C50.1535 86.5349 50.2143 86.1381 50.5523 85.9802C50.9612 85.7919 51.4046 85.6543 51.6455 85.6179C52.5524 85.4741 53.0544 86.0652 53.0099 86.6644C52.9593 87.3426 52.4107 87.8345 51.7507 87.7879ZM54.9937 89.7455C54.7609 89.8264 54.5018 89.9236 54.1152 89.8771C53.769 89.8345 53.3581 89.6017 52.9552 89.3953C52.6799 89.2556 52.6597 88.8568 52.8783 88.628C53.3459 88.1503 53.9249 87.9013 54.5848 87.9803C54.846 88.0126 55.1314 88.1989 55.3277 88.3973C55.7427 88.8203 55.5545 89.5451 54.9937 89.7455ZM56.5504 86.3183C56.3197 86.4802 56.0322 86.6482 55.767 86.6543C55.1314 86.6685 54.5342 86.4762 54.0544 86.0227C53.7467 85.7353 53.7548 85.2798 54.1172 85.0591C54.4289 84.8709 54.7751 84.711 55.0261 84.6725C55.7144 84.5713 56.2205 84.9154 56.6172 85.3223C56.8986 85.6118 56.8784 86.0835 56.5504 86.3183ZM57.5059 91.4904C57.342 91.4095 57.1618 91.207 57.1375 91.041C57.1172 90.8831 57.2488 90.6281 57.3905 90.541C57.6638 90.375 57.9695 90.1503 58.2995 90.1807C58.5444 90.2009 58.7246 90.371 58.8359 90.5167C59.006 90.7414 58.9128 91.0087 58.7468 91.201C58.4391 91.5654 57.9148 91.6949 57.5059 91.4904ZM58.6254 103.8C58.9432 103.993 59.093 104.284 59.0728 104.653C59.0525 105.043 58.7975 105.266 58.4452 105.351C57.9533 105.47 57.4634 105.647 56.9492 105.643C56.433 105.641 55.933 105.481 55.4613 105.323C54.8723 105.122 54.7791 104.389 55.2528 103.999C56.0221 103.357 57.7468 103.256 58.6254 103.8ZM53.9897 100.47C54.0099 100.136 54.1779 99.9096 54.4795 99.7983C55.2731 99.5048 56.6112 100.238 56.8136 101.059C56.9513 101.62 56.6213 102.102 55.8035 101.891C55.4937 101.813 54.9553 101.572 54.4289 101.315C54.105 101.159 53.9613 100.847 53.9897 100.47ZM51.4208 101.626C51.5665 101.555 51.7345 101.505 51.8965 101.489C52.771 101.412 53.5463 101.695 54.2609 102.173C54.3297 102.221 54.3986 102.278 54.4431 102.345C54.5889 102.56 54.7265 102.808 54.5585 103.041C54.4492 103.191 54.2407 103.284 54.0605 103.361C53.9552 103.406 53.8095 103.416 53.4228 103.369C53.0544 103.325 52.4552 103.136 51.852 102.966C51.6556 102.912 51.4653 102.796 51.3013 102.673C50.9511 102.4 51.0139 101.825 51.4208 101.626ZM49.6738 105.42C49.7406 105.207 49.9349 104.956 50.1333 104.885C50.943 104.594 51.7022 104.77 52.3601 105.315C52.5382 105.462 52.5058 105.697 52.352 105.877C52.018 106.268 51.5503 106.414 50.8661 106.307C50.7102 106.282 50.356 106.167 50.0118 106.027C49.7608 105.922 49.5928 105.667 49.6738 105.42ZM50.2548 109.11C50.0544 108.902 50.2062 108.667 50.2629 108.582C50.6839 107.936 51.5605 107.626 52.2508 107.908C52.4167 107.975 52.5949 108.191 52.6232 108.363C52.6496 108.527 52.5342 108.78 52.3965 108.892C52.2123 109.039 51.9532 109.157 51.7163 109.169C51.2649 109.195 50.6353 109.513 50.2548 109.11ZM54.3581 111.58C53.9755 111.724 53.5706 111.894 53.1637 111.875C52.933 111.865 52.7427 111.76 52.5625 111.669C52.2892 111.531 52.2366 111.133 52.4674 110.928C52.6172 110.797 52.7973 110.667 52.9856 110.608C53.435 110.471 53.8986 110.499 54.3237 110.697C54.4856 110.772 54.68 110.975 54.686 111.129C54.6941 111.282 54.5119 111.523 54.3581 111.58ZM55.0281 108.651C54.5909 108.677 54.3034 108.556 54.0241 108.487C53.7852 108.428 53.6516 108.118 53.7204 107.875C53.8682 107.349 54.2265 107.011 54.7285 106.845C55.35 106.639 55.9654 106.683 56.5525 106.995C57.0707 107.272 57.1112 107.946 56.5727 108.187C56.0504 108.424 55.4856 108.622 55.0281 108.651ZM58.5404 110.351C58.2549 110.404 57.9594 110.4 57.6598 110.42C57.4169 110.402 57.1618 110.402 56.9189 110.353C56.4593 110.266 56.2994 109.734 56.6253 109.384C56.7367 109.264 56.8743 109.159 57.0201 109.088C57.6841 108.762 58.3845 108.718 59.0991 108.855C59.429 108.918 59.6942 109.173 59.6942 109.416C59.6942 109.736 59.5282 109.977 59.2448 110.112C59.0201 110.216 58.7812 110.307 58.5404 110.351ZM61.6841 117.131C61.089 117.795 60.3967 118.341 59.5667 118.695C59.3582 118.783 59.0829 118.625 59.089 118.349C59.0991 118.309 59.1051 118.171 59.1659 118.074C59.6598 117.287 60.3825 116.795 61.2631 116.54C61.3906 116.503 61.6173 116.588 61.7003 116.693C61.7692 116.789 61.7631 117.044 61.6841 117.131ZM62.0728 114.734C61.5283 115.054 60.9615 115.339 60.3967 115.62C60.2529 115.691 60.0748 115.706 59.9108 115.726C59.7064 115.75 59.4979 115.507 59.5566 115.311C59.6072 115.155 59.6578 114.985 59.757 114.861C60.3157 114.165 61.0789 113.823 61.9392 113.714C62.1396 113.689 62.6659 113.647 62.7449 114.05C62.838 114.511 62.2732 114.61 62.0728 114.734ZM61.7246 111.126C61.6578 111.116 61.4898 111.1 61.3299 111.056C61.0526 110.981 60.927 110.588 61.089 110.331C61.4858 109.693 62.5769 109.471 63.2145 109.898C63.4453 110.054 63.4413 110.448 63.2145 110.673C62.8259 111.054 62.34 111.131 61.7246 111.126ZM65.3178 117.827C64.8542 118.536 64.2874 120.09 63.3178 119.621C63 119.467 63.1336 119.044 63.2024 118.92C63.6741 118.074 64.2044 116.734 65.2247 116.906C65.6701 116.979 65.5142 117.531 65.3178 117.827ZM66.745 113.639C66.6397 114.155 65.745 114.89 65.1721 114.934C64.9474 114.95 64.6964 114.657 64.747 114.416C64.9008 113.691 65.3624 113.244 66.0344 112.989C66.0709 112.975 66.1154 112.975 66.1559 112.971C66.4676 112.94 66.8098 113.329 66.745 113.639ZM67.2349 103.918C66.4778 103.23 66.1235 102.347 66.0263 101.353C65.9818 100.879 66.4069 100.578 66.8705 100.73C66.911 100.744 66.9515 100.748 66.9899 100.764C67.8725 101.151 68.8098 102.653 68.7855 103.638C68.7754 104.027 68.5365 104.252 68.1499 104.27C67.7875 104.288 67.494 104.153 67.2349 103.918ZM69.5203 114.313C69.8807 114.013 70.4252 114.246 70.4596 114.722C70.4799 115.001 70.4313 115.309 70.322 115.57C70.0629 116.206 69.5973 116.699 69.0689 117.121C68.9333 117.226 68.6438 117.268 68.5021 117.191C68.2956 117.102 68.2268 116.888 68.2288 116.477C68.2288 115.637 68.8159 114.898 69.5203 114.313ZM70.4212 120.803C70.0608 121.305 69.6155 121.754 69.164 122.183C68.9029 122.432 68.4677 122.276 68.3685 121.916C68.3017 121.683 68.2734 121.418 68.3138 121.183C68.4697 120.313 68.9616 119.661 69.7066 119.195C69.9212 119.06 70.1742 118.908 70.3948 119.094C70.5649 119.242 70.7471 119.463 70.7754 119.73C70.82 120.121 70.6276 120.515 70.4212 120.803ZM71.1965 99.6384C71.1803 100.116 70.9556 100.547 70.7572 100.952C70.5588 101.359 69.992 101.444 69.6803 101.116C69.4616 100.885 69.2552 100.572 69.1985 100.268C69.0487 99.4218 69.1904 98.5918 69.5325 97.8043C69.6418 97.5533 69.8625 97.363 70.1216 97.4177C70.3402 97.4622 70.7025 97.6485 70.8908 98.0979C71.1297 98.6687 71.2167 98.9886 71.1965 99.6384ZM72.2046 119.21C72.1358 119.25 72.0487 119.313 71.903 119.291C71.7896 119.274 71.6277 119.181 71.5305 119.066C71.075 118.521 71.4556 117.503 72.1601 117.341C72.405 117.287 72.7755 117.533 72.8342 117.793C72.9415 118.27 72.6419 118.951 72.2046 119.21ZM72.907 109.742C72.4415 109.377 71.6843 108.238 71.2653 107.228C72.5831 108.041 73.4982 108.902 74.2694 110.015C73.7289 110.248 73.3038 110.056 72.907 109.742ZM71.7431 102.385C71.7248 101.91 71.8706 101.479 72.1054 101.074C72.3139 100.719 72.6216 100.574 72.9334 100.671C73.2269 100.76 73.5548 101.199 73.4577 101.756C73.4172 101.991 73.2512 102.377 73.069 102.746C72.9293 103.025 72.6601 103.159 72.3321 103.1C71.992 103.039 71.7572 102.748 71.7431 102.385ZM74.2472 106.768C74.8828 106.76 75.3666 107.088 75.8788 107.331C76.3727 107.566 76.8525 107.829 77.3444 108.072C77.727 108.264 78.1136 108.452 78.4881 108.635C78.814 108.792 79.1744 108.493 79.0772 108.143C79.0772 108.141 79.0752 108.139 79.0752 108.137C78.8444 107.29 78.5752 106.454 78.31 105.582C78.5408 105.598 78.6217 105.8 78.7149 105.944C78.9456 106.296 79.1116 106.614 79.3201 106.979C79.8687 107.944 80.6643 108.952 81.308 109.938C81.5793 110.353 81.2109 110.89 80.723 110.79L80.7149 110.788C79.9659 110.631 79.2655 110.337 78.6278 109.918C77.8869 109.434 77.1683 108.922 76.4516 108.406C75.7107 107.867 74.982 107.315 74.2472 106.768ZM83.3182 115.969C83.0409 116.019 82.7635 116.056 82.4983 116.121C81.8101 116.287 81.0975 116.355 80.4355 116.459C79.1825 114.645 78.8647 114.467 76.7128 114.361C76.4618 114.025 76.1885 113.665 75.8423 113.207C77.1642 113.155 78.2938 113.499 79.4254 113.746C81.0489 114.104 82.3971 114.531 83.4336 114.983C83.8972 115.189 83.8162 115.878 83.3182 115.969ZM93.3791 115.422C91.9621 114.647 89.3183 113.131 87.8608 112.262C86.1786 111.262 84.634 110.09 83.3344 108.62C83.223 108.497 82.9417 108.151 82.8323 107.964C83.0975 107.964 83.632 108.06 83.9073 108.009C84.4012 107.922 84.9235 107.855 85.3688 107.649C86.2595 107.24 86.5369 106.339 85.9923 105.539C85.6502 105.037 85.4862 104.535 85.3506 103.952C85.0773 102.798 84.2372 102.096 83.1117 101.748C82.8728 101.673 82.6198 101.653 82.3526 101.604C81.6805 100.007 80.4942 99.359 78.8545 99.7315C78.4719 99.3631 78.1825 98.9805 77.7999 98.7558C77.4537 98.5513 77.0043 98.521 76.5205 98.3914C76.4861 98.3043 76.4172 98.1566 76.3707 98.0027C75.7128 95.9116 74.0812 94.7759 71.8807 94.8893C71.7147 94.8994 71.5467 94.8913 71.3908 94.8913C70.1742 92.537 68.4738 92.1524 67.0061 93.3285C66.7753 93.1322 66.5385 92.9257 66.2814 92.705C66.6721 92.3913 67.0648 92.4358 67.4353 92.4216C69.6195 92.3346 71.7248 92.6808 73.7573 93.4986C76.3707 94.5512 78.731 96.0088 80.9052 97.7821C84.2393 100.507 87.0227 103.732 89.4782 107.244C91.1766 109.671 92.7232 112.191 93.9297 114.908C93.9318 114.91 93.9318 114.914 93.9338 114.916C94.0816 115.262 93.7091 115.602 93.3791 115.422ZM90.9135 101.557C90.0673 99.6607 89.5086 97.6647 89.4924 95.5573C89.4904 95.3508 89.5349 95.1444 89.5673 94.9379C89.5693 94.9116 89.626 94.8934 89.7232 94.8265C89.9681 94.9905 90.2353 95.1788 90.5147 95.3468C91.7131 96.0796 92.7091 95.5108 92.8832 94.3448C92.9034 94.2172 92.9176 94.0937 92.9419 93.9703C92.9662 93.8468 93.0026 93.7273 93.0289 93.6221C94.201 92.8042 94.4986 91.9398 93.9965 90.5734C93.7739 89.9762 93.5633 89.4135 93.616 88.7515C93.6565 88.2313 93.367 87.7758 93.035 87.3811C92.8204 87.128 92.5572 86.9134 92.3366 86.7009C92.3082 84.2514 91.7779 83.4984 89.8487 83.2049C89.5187 82.2737 88.8831 81.5874 87.7454 81.4093C87.8486 80.5145 87.5369 79.8202 86.8162 79.3687C86.8486 78.9457 86.8749 78.5772 86.9094 78.1319C87.962 78.3809 88.8021 78.9011 89.5936 79.5327C91.4945 81.0591 92.6868 83.0611 93.6079 85.2818C95.2881 89.3244 96.3104 93.5371 96.9298 97.8529C97.4905 101.744 97.8772 105.649 97.9986 109.578C98.0169 110.207 97.9703 110.841 97.8934 111.469C97.8408 111.892 97.3407 112.039 97.0209 111.742C96.8063 111.541 96.6261 111.303 96.4581 111.062C94.3306 108.056 92.4135 104.922 90.9135 101.557ZM99.855 81.4336C99.5108 81.2251 99.4865 80.8829 99.4056 80.5773C99.0979 79.4032 99.0594 78.393 99.2861 76.9881C100.537 77.5387 100.537 77.5387 101.549 77.5064C101.42 78.4963 100.922 79.3424 100.594 80.2412C100.438 80.6663 100.272 81.1097 99.855 81.4336ZM101.41 98.0655C101.266 98.3732 101.122 98.6768 100.962 98.9724C100.928 99.0392 100.835 99.0756 100.697 99.1809C100.63 98.9218 100.535 98.6991 100.519 98.4724C100.414 96.7375 100.511 95.0047 100.77 93.2941C101.211 90.3771 101.703 87.464 102.511 84.6158C102.786 83.6482 103.149 82.6988 103.523 81.7615C103.671 81.389 103.865 80.97 104.42 80.9336C104.894 81.3485 104.997 81.9295 105.015 82.5166C105.035 83.2312 105.043 83.9518 104.974 84.6664C104.768 86.8082 104.428 88.9256 103.784 90.9945C103.049 93.3731 102.458 95.7962 101.41 98.0655ZM108.224 99.0756C108.031 99.1991 107.829 99.3408 107.62 99.4582C107.274 99.6566 107.047 99.94 106.894 100.306C106.798 100.531 106.679 100.77 106.505 100.93C105.825 101.566 105.677 102.274 106.122 103.098C106.159 103.169 106.171 103.256 106.215 103.418C106.025 103.584 105.774 103.754 105.594 103.979C105.361 104.272 105.13 104.59 104.991 104.934C104.535 106.037 104.938 106.8 106.102 107.126C106.217 107.161 106.335 107.201 106.525 107.258C106.43 107.985 106.655 108.645 106.956 109.296C107.298 110.037 107.697 110.341 108.509 110.27C108.883 110.238 109.252 110.116 109.622 110.029C109.78 109.993 109.936 109.936 110.159 109.867C110.159 110.025 110.195 110.145 110.153 110.224C108.63 113.149 107.124 116.084 105.07 118.689C104.705 119.153 104.311 119.598 103.881 120.003C103.879 120.005 103.877 120.007 103.875 120.009C103.487 120.368 102.857 120.084 102.788 119.562C102.756 119.323 102.764 119.082 102.744 118.851C102.468 115.768 102.612 112.679 102.815 109.6C102.938 107.707 103.203 105.819 103.505 103.94C103.78 102.23 104.308 100.574 104.964 98.9623C105.594 97.4177 106.46 96.0331 107.634 94.8387C110.102 92.3285 112.707 89.9985 115.732 88.1584C117.718 86.9499 119.677 85.6968 121.758 84.6563C122.019 84.5247 122.283 84.4033 122.778 84.1624C122.444 85.1057 122.252 85.796 122.534 86.4944C121.967 87.2738 121.426 88.0207 120.884 88.7657C118.813 87.3568 117.791 87.5086 116.754 89.4378C115.987 89.5187 115.228 89.7475 114.616 90.3244C114.009 90.8973 113.709 91.6281 113.57 92.4621C113.317 92.4621 113.102 92.4257 112.908 92.4702C112.543 92.5552 112.12 92.5573 111.835 92.7982C111.137 93.3872 110.288 93.6929 109.973 94.6019C109.877 94.8772 109.845 95.1707 109.788 95.4419C107.782 96.4177 107.464 97.1323 108.224 99.0756ZM119.975 111.015C118.971 111.863 117.88 112.596 116.683 113.137C115.066 113.861 113.426 114.535 111.794 115.226C111.521 115.343 111.244 115.434 110.964 115.495C110.501 115.594 110.132 115.139 110.317 114.701C110.319 114.699 110.319 114.695 110.321 114.693C110.95 113.171 112.827 110.343 113.918 109.288C114.637 109.904 115.499 109.942 116.41 109.693C117.064 110.705 117.993 110.758 118.997 110.493C119.414 110.382 119.811 110.276 120.216 110.495C120.323 110.752 120.129 110.882 119.975 111.015ZM125.408 119.918C125.337 120.074 125.216 120.246 125.044 120.297C124.799 120.355 124.649 120.185 124.546 120.08C124.303 119.831 124.177 119.509 124.268 119.167C124.313 119.001 124.453 118.821 124.572 118.762C125.159 118.485 125.643 119.402 125.408 119.918ZM120.849 113.71C120.386 113.799 120.072 113.25 120.384 112.896C121.588 111.527 123.665 109.537 124.495 109.037C124.704 109.394 124.928 109.744 125.117 110.108C125.183 110.244 125.226 110.436 125.183 110.574C124.967 111.28 125.339 111.695 125.866 112.035C126.1 112.185 126.355 112.305 126.704 112.493C125.078 112.867 122.42 113.406 120.849 113.71ZM126.341 100.647C126.056 100.655 125.76 100.408 125.746 100.108C125.714 99.4015 125.916 98.7841 126.53 98.3651C126.821 98.1647 127.151 98.1039 127.477 98.278C127.813 98.4582 127.892 98.7801 127.89 99.1343C127.88 99.9178 127.155 100.624 126.341 100.647ZM127.252 96.5796C126.667 96.8306 126.07 96.4177 126.167 95.8003C126.287 95.0472 126.564 94.3326 127.032 93.7192C127.479 93.1403 128.224 93.1767 128.611 93.7982C128.76 94.0391 128.92 94.3184 128.918 94.6099C128.912 94.9379 128.726 95.2071 128.58 95.4561C128.275 95.9784 127.805 96.3408 127.252 96.5796ZM130.096 121.54C130.044 121.698 129.87 121.914 129.671 122.015C129.526 122.09 129.238 122.034 129.092 121.926C128.669 121.615 128.445 121.159 128.382 120.633C128.345 120.333 128.659 120.021 128.924 120.074C129.445 120.181 130.299 120.944 130.096 121.54ZM130.127 99.4562C130.236 98.8874 130.829 98.3975 131.41 98.4643C131.582 98.4845 131.809 98.6485 131.878 98.8064C131.953 98.9683 131.931 99.2477 131.833 99.3934C131.53 99.8449 131.054 100.007 130.641 100.021C130.281 99.9927 130.08 99.7072 130.127 99.4562ZM132.224 118.331C132.188 118.434 132.06 118.61 131.902 118.695C131.789 118.756 131.534 118.728 131.451 118.637C131.171 118.345 130.898 118.029 130.7 117.677C130.526 117.374 130.862 116.985 131.206 117.035C131.839 117.129 132.481 117.647 132.224 118.331ZM132.846 115.266C132.507 114.989 132.416 114.708 132.566 114.525C132.775 114.268 133.072 114.199 133.36 114.276C133.633 114.351 133.904 114.489 134.125 114.663C134.273 114.778 134.35 115.001 134.374 115.094C134.497 115.602 133.945 115.916 133.578 115.74C133.317 115.616 133.07 115.45 132.846 115.266ZM135.003 120.645C134.856 120.827 134.601 120.835 134.449 120.693C134.18 120.444 133.945 120.153 133.734 119.853C133.597 119.653 133.839 119.321 134.086 119.337C134.637 119.374 135.062 119.697 135.155 120.204C135.178 120.339 135.099 120.53 135.003 120.645ZM135.765 109.566C135.771 109.402 135.929 109.167 136.082 109.094C136.376 108.956 136.704 108.811 137.066 108.825C137.439 108.835 137.797 109.015 138.117 109.189C138.315 109.294 138.473 109.533 138.574 109.748C138.72 110.066 138.455 110.491 138.119 110.475C137.412 110.44 136.692 110.406 136.056 110.058C135.906 109.975 135.761 109.73 135.765 109.566ZM138.402 117.436C138.204 117.635 137.953 117.701 137.714 117.542C137.406 117.333 137.107 117.102 136.844 116.839C136.757 116.75 136.738 116.495 136.799 116.376C136.886 116.21 137.042 116.038 137.202 115.987C137.726 115.817 138.167 116.22 138.459 116.625C138.629 116.861 138.609 117.23 138.402 117.436ZM139.317 114.434C138.783 114.392 138.358 114.135 138.042 113.708C137.829 113.422 137.999 112.977 138.338 112.89C138.862 112.752 139.605 113.021 139.908 113.475C139.975 113.572 140.004 113.701 140.014 113.778C140.062 114.149 139.649 114.463 139.317 114.434ZM143.133 112.667C142.425 112.687 141.827 112.392 141.283 111.977C141.068 111.813 140.981 111.556 141.068 111.297C141.161 111.023 141.41 110.95 141.674 110.932C141.716 110.93 141.759 110.932 142.036 110.932C142.259 110.985 142.716 111.07 143.149 111.212C143.493 111.325 143.692 111.602 143.718 111.977C143.74 112.331 143.479 112.657 143.133 112.667ZM144.099 96.6667C144.498 96.1565 145.028 95.8306 145.655 95.6889C146.068 95.5958 146.465 95.7901 146.607 96.1181C146.769 96.4885 146.635 96.9845 146.295 97.2395C145.836 97.5817 145.287 97.608 144.779 97.6444C144.66 97.6343 144.574 97.6303 144.494 97.6161C144.02 97.529 143.807 97.0391 144.099 96.6667ZM146.182 102.977C145.575 103.021 145.024 102.837 144.544 102.464C144.275 102.256 144.336 101.74 144.655 101.616C144.959 101.497 145.293 101.454 145.51 101.404C145.836 101.436 146.046 101.44 146.251 101.479C146.613 101.547 146.858 101.843 146.848 102.175C146.836 102.564 146.538 102.95 146.182 102.977ZM148.66 99.187C148.556 99.361 148.419 99.5594 148.247 99.6343C147.909 99.7821 147.544 99.8935 147.315 99.9117C147.077 99.9299 146.99 99.8874 146.911 99.8671C146.66 99.7983 146.439 99.6951 146.394 99.3955C146.344 99.0837 146.473 98.7902 146.755 98.6687C147.263 98.444 147.797 98.3651 148.346 98.4886C148.631 98.5513 148.811 98.9319 148.66 99.187ZM150.37 96.3853C150.127 96.9481 149.682 97.1869 148.979 97.1707C148.921 97.1566 148.755 97.1363 148.601 97.0837C148.332 96.9906 148.188 96.5999 148.334 96.365C148.694 95.7861 149.222 95.5128 149.898 95.5553C150.293 95.5796 150.532 96.0148 150.37 96.3853Z" fill="#F2ECE3"/>
</svg>
